<svg width="393" height="238" viewBox="0 0 393 238" fill="none" xmlns="http://www.w3.org/2000/svg">
<path d="M334.577 217.179L241.915 217.322C230.557 217.39 218.492 217.424 205.979 217.424C175.522 217.424 147.682 217.206 126.389 216.846H40.6755C40.6755 203.749 57.3387 209.502 61.7325 211.814C66.8415 214.5 60.2627 200.199 70.6929 200.199C79.6218 200.199 84.7308 204.082 84.7308 204.082C84.7308 204.082 84.9745 196.534 93.4397 196.425C101.905 196.316 107.281 202.77 113.962 208.08C116.721 210.27 120.038 212.011 123.174 213.337C144.844 212.942 173.958 212.698 205.979 212.698C221.149 212.698 235.658 212.752 249.044 212.854C272.828 212.854 294.608 202.035 300.786 199.322C316.051 192.604 308.819 208.618 308.819 208.618C308.819 208.618 320.586 204.334 328.862 204.368C340.55 204.408 334.577 217.179 334.577 217.179Z" fill="#D0F0E4"/>
<path d="M286.497 216.784C286.497 216.784 288.839 198.546 273.591 192.678C273.591 192.678 271.343 212.52 278.952 211.221C281.805 210.732 275.682 205.917 265.699 205.713C265.699 205.713 273.347 216.831 282.638 216.988" stroke="#FFCF2D" stroke-width="6" stroke-miterlimit="10"/>
<path d="M282.669 216.96C282.669 216.96 283.55 208.616 292.95 206.018C301.439 203.679 286.584 216.756 286.584 216.756" stroke="#FFCF2D" stroke-width="6" stroke-miterlimit="10"/>
<path d="M71.5811 216.199C71.5811 216.199 58.1012 208.209 54.3048 195.173C54.3048 195.173 66.2363 198.26 71.2981 204.829C71.2981 204.829 73.3732 189.876 78.3878 184.844C78.3878 184.844 81.0995 188.217 81.4375 200.715C81.4375 200.715 87.584 191.657 92.1586 188.733C92.1586 188.733 91.5298 200.518 88.26 206.536C88.26 206.536 92.9839 203.353 96.175 206.475C99.3662 209.596 93.1096 214.165 93.1096 214.165" stroke="#FE5244" stroke-width="5" stroke-miterlimit="10"/>
<path d="M78.3958 185.285C78.3958 185.285 78.5294 212.526 77.0989 216.055" stroke="#FE5244" stroke-width="5" stroke-miterlimit="10"/>
<path d="M91.7185 189.42C91.7185 189.42 82.3179 210.316 77.0989 216.056" stroke="#FE5244" stroke-width="5" stroke-miterlimit="10"/>
<path d="M88.1185 206.631C87.7727 207.726 85.3911 210.745 84.9195 209.446C84.4557 208.147 88.7394 206.046 89.8163 205.699" stroke="#FE5244" stroke-width="5" stroke-miterlimit="10"/>
<path d="M71.306 204.836C71.9427 205.897 74.0963 208.876 71.9191 208.801C70.4965 208.753 71.6912 202.504 71.6912 202.504" stroke="#FE5244" stroke-width="5" stroke-miterlimit="10"/>
<path d="M249.013 193.807C243.668 196.071 244.171 200.416 244.124 203.333C244.069 206.441 237.215 208.066 237.215 208.066C239.038 203.095 237.741 197.975 237.741 197.975L249.013 193.807Z" fill="#A0505A"/>
<path d="M254.68 205.252L253.461 205.823L250.907 200.771C250.773 200.505 250.475 200.349 250.168 200.349C250.066 200.349 249.956 200.369 249.854 200.403C249.594 200.499 249.406 200.709 249.374 200.954L248.25 208.278L233.466 215.241C233.025 214.33 235.769 212.045 237.223 208.067C237.223 208.067 244.084 206.442 244.132 203.334C244.179 200.417 243.684 196.065 249.021 193.807L250.144 193.393C256.275 195.834 254.68 205.252 254.68 205.252Z" fill="#FFCF2D"/>
<path d="M250.137 157.516V193.392L237.906 197.982L228.742 161.963C232.845 162.099 239.683 161.351 250.137 157.516Z" fill="white" stroke="#9A3B82" stroke-width="5" stroke-miterlimit="10"/>
<path d="M241.145 160.672L243.558 195.848" stroke="#9A3B82" stroke-width="5" stroke-miterlimit="10"/>
<path d="M250.137 157.516V166.906L229.323 164.302L228.742 161.963C232.845 162.099 239.683 161.351 250.137 157.516Z" fill="#9A3B82"/>
<path d="M311.775 133.172L303.868 134.614C303.6 134.661 303.333 134.587 303.144 134.417C303.011 134.287 302.94 134.131 302.94 133.968C302.94 133.791 303.019 133.614 303.184 133.485L307.585 129.915L306.611 129.16C306.611 129.16 296.393 130.894 295.811 136.409L296.589 137.143C300.606 140.557 304.936 138.796 307.963 137.912C310.855 137.069 314.306 140.951 314.989 141.754C314.997 141.754 315.013 141.754 315.021 141.754C319.58 141.625 322.81 143.025 323.604 142.393L311.775 133.172Z" fill="#FFCF2D"/>
<path d="M296.597 137.143C300.613 140.556 304.944 138.795 307.97 137.911C311.193 136.973 315.036 141.753 315.036 141.753C309.33 141.909 304.465 144.527 304.465 144.527L296.597 137.143Z" fill="#A0505A"/>
<path d="M247.771 157.822C247.771 157.822 249.759 169.443 265.016 169.225C280.272 169.008 304.3 144.46 304.3 144.46L295.85 136.449L247.771 157.822Z" fill="white" stroke="#9A3B82" stroke-width="5" stroke-miterlimit="10"/>
<path d="M256.566 154.668C257.069 157.728 259.443 160.611 266.682 160.509C277.434 160.359 292.628 148.153 300.661 140.959" stroke="#9A3B82" stroke-width="5" stroke-miterlimit="10"/>
<path d="M314.361 112.744C312.969 112.288 309.66 113.852 307.169 116.572C304.489 119.49 303.404 122.59 304.583 123.4L266.831 106.032C264.976 105.182 262.838 106.638 263.365 108.392L274.793 145.846C236.083 167.579 223.672 161.065 223.672 161.065V37.9848C223.672 37.9916 223.672 37.9916 223.68 37.9984C224.01 38.726 227.555 38.216 231.603 36.8492C235.328 35.598 238.174 34.0612 238.354 33.2588L238.362 33.252V72.0324C238.362 74.4668 239.879 76.704 242.332 77.894L314.361 112.744Z" fill="#FE5244"/>
<path d="M314.361 112.744C312.969 112.288 309.66 113.852 307.169 116.572C304.489 119.49 303.404 122.59 304.583 123.4L266.831 106.032C264.976 105.182 262.838 106.638 263.365 108.392L274.793 145.996C264.953 151.524 256.81 155.074 250.137 157.522C239.683 161.35 232.845 162.105 228.742 161.969C225.165 161.854 223.672 161.065 223.672 161.065V37.9848C223.672 37.9915 223.672 37.9916 223.68 37.9984C224.01 38.726 227.555 38.216 231.603 36.8492C235.328 35.598 238.174 34.0612 238.354 33.2588L238.362 33.252V72.0323C238.362 74.4667 239.879 76.7039 242.332 77.8939L314.361 112.744Z" fill="#FE5244"/>
<path d="M260.213 103.014L304.583 123.835" stroke="white" stroke-width="6" stroke-miterlimit="10" stroke-linecap="round"/>
<path d="M243.385 78.3965L238.41 103.414L263.805 88.2837L243.385 78.3965Z" fill="#FFCF2D"/>
<path d="M243.385 78.3965L238.41 103.414L263.805 88.2837" stroke="white" stroke-width="6" stroke-miterlimit="10" stroke-linecap="round"/>
<path d="M243.181 30.1116L210.396 35.9256C209.186 36.1432 207.936 35.2116 207.614 33.8448C207.292 32.478 208.015 31.1996 209.225 30.982L242.009 25.168L243.181 30.1116Z" fill="white" stroke="#3FB1B5" stroke-width="5" stroke-miterlimit="10" stroke-linecap="round"/>
<path d="M243.169 30.116C244.381 29.9011 245.101 28.6204 244.778 27.2555C244.454 25.8907 243.21 24.9584 241.998 25.1734C240.786 25.3883 240.066 26.669 240.389 28.0338C240.712 29.3987 241.957 30.3309 243.169 30.116Z" fill="white" stroke="#3FB1B5" stroke-width="5" stroke-miterlimit="10" stroke-linecap="round"/>
<path d="M224.474 32.5856C224.474 32.5856 213.871 42.8944 215.026 45.1656C216.535 46.4644 217.761 47.0356 217.581 47.5184C217.384 48.042 214.845 51.204 214.845 51.204L214.594 48.858L212.165 49.5516C212.165 49.5516 214.727 46.3148 214.892 45.322C213.839 44.6284 211.693 43.1868 211.764 42.1804C211.843 41.1128 215.6 37.3184 218.327 34.7004L214.216 35.8768L213.407 32.5924L220.803 31.416L224.474 32.5856Z" fill="#FE5244"/>
<path d="M223.035 33.0343C224.268 33.0343 225.268 32.1696 225.268 31.1031C225.268 30.0365 224.268 29.1719 223.035 29.1719C221.803 29.1719 220.803 30.0365 220.803 31.1031C220.803 32.1696 221.803 33.0343 223.035 33.0343Z" fill="white" stroke="#FE5244" stroke-width="5" stroke-miterlimit="10"/>
<path d="M238.354 33.2586C238.174 34.061 235.328 35.5978 231.603 36.849C227.555 38.209 224.01 38.7258 223.68 37.9982C223.68 37.9914 223.68 37.9914 223.672 37.9846C223.389 37.2502 226.392 35.5706 230.416 34.2174C234.464 32.8574 238.009 32.3406 238.339 33.0682C238.362 33.1226 238.37 33.1838 238.354 33.2586Z" fill="#9A3B82"/>
<path d="M235.627 27.5473L235.195 32.9465L234.99 35.5305C234.008 35.9793 232.853 36.4281 231.603 36.8497C229.481 37.5637 227.5 38.0397 226.046 38.2369V33.3001L232.012 32.2393C232.012 32.2393 232.342 30.3965 232.97 28.8529C233.591 27.3025 235.627 27.5473 235.627 27.5473Z" fill="#A0505A"/>
<path d="M232.177 32.0137C232.09 32.3197 229.496 33.0337 229.496 34.6657" stroke="#73325A" stroke-width="4" stroke-miterlimit="10" stroke-linecap="round"/>
<path d="M235.195 32.9453L234.99 35.5293C234.008 35.9781 232.853 36.4269 231.603 36.8485C229.481 37.5625 227.5 38.0385 226.046 38.2357V36.0053C227.209 35.4137 228.726 34.7881 230.416 34.2169C232.177 33.6185 233.843 33.1833 235.195 32.9453Z" fill="#73325A"/>
<path d="M231.288 30.2465L224.631 31.5657C224.277 31.6337 223.947 31.3889 223.947 31.0489V27.5537C223.947 27.0845 224.277 26.6765 224.757 26.5405L231.336 24.6841C231.752 24.5685 232.169 24.8541 232.169 25.2553V29.2401C232.161 29.7229 231.799 30.1445 231.288 30.2465Z" fill="#A0505A"/>
<path d="M226.305 31.0224C225.944 31.0904 225.598 30.8524 225.598 30.526V27.1736C225.598 26.7248 225.936 26.3304 226.431 26.2012" stroke="#73325A" stroke-width="4" stroke-miterlimit="10" stroke-linecap="round"/>
<path d="M228.223 30.6613C227.861 30.7293 227.516 30.4845 227.516 30.1513V26.6969C227.516 26.2345 227.854 25.8265 228.349 25.6973" stroke="#73325A" stroke-width="4" stroke-miterlimit="10" stroke-linecap="round"/>
<path d="M230.369 30.2668C230.007 30.3348 229.661 30.0832 229.661 29.7432V26.1664C229.661 25.6904 229.999 25.2688 230.495 25.1328" stroke="#73325A" stroke-width="4" stroke-miterlimit="10" stroke-linecap="round"/>
<path d="M311.437 119.503C308.757 122.427 305.754 124.201 304.575 123.392C303.396 122.583 304.481 119.489 307.161 116.565C309.66 113.845 312.962 112.281 314.353 112.737L314.628 112.873C315.815 113.689 314.117 116.585 311.437 119.503Z" fill="#9A3B82"/>
<path d="M323.565 124.419L321.781 125.235C321.073 125.562 320.193 125.33 319.816 124.718L317.937 121.699L315.092 120.856C315.406 120.958 316.632 121.502 316.247 123.481L309.566 121.325L307.271 120.584L305.094 119.381C305.605 118.483 306.304 117.517 307.177 116.572C307.908 115.777 308.701 115.083 309.495 114.512L311.767 115.885L314.093 116.103L317.874 116.45C318.479 116.504 319.061 116.681 319.572 116.96L322.59 118.816C323.03 119.088 323.321 119.496 323.392 119.959L324.005 123.671C324.06 123.977 323.879 124.276 323.565 124.419Z" fill="#A0505A"/>
<path d="M319.171 118.373L321.788 119.985C322.166 120.216 322.417 120.576 322.488 120.977L323.022 123.976C323.062 124.241 322.912 124.5 322.637 124.622" stroke="#73325A" stroke-width="4" stroke-miterlimit="10" stroke-linecap="round"/>
<path d="M317.552 118.91L320.169 120.522C320.547 120.753 320.798 121.113 320.869 121.515L321.403 124.513C321.443 124.779 321.293 125.037 321.018 125.159" stroke="#73325A" stroke-width="4" stroke-miterlimit="10" stroke-linecap="round"/>
<path d="M315.092 120.849L313.19 120.291" stroke="#73325A" stroke-width="4" stroke-miterlimit="10" stroke-linecap="round"/>
<path d="M314.093 116.103C313.457 117.143 312.529 118.327 311.445 119.51C310.824 120.183 310.195 120.795 309.566 121.325L307.271 120.584L305.094 119.381C305.605 118.483 306.304 117.517 307.177 116.572C307.908 115.777 308.701 115.083 309.495 114.512L311.767 115.885L314.093 116.103Z" fill="#73325A"/>
<path d="M245.46 60.2422L262.272 66.6954L268.27 81.873L256.087 74.3386L250.404 68.3342L245.46 60.2422Z" fill="#FE5244"/>
<path d="M250.404 68.3325C250.404 68.3325 255.906 69.1485 258.122 74.4525L259.294 73.4325C259.294 73.4325 257.164 68.2713 251.536 66.9453L250.404 68.3325Z" fill="#9A3B82"/>
<path d="M283.196 74.9225C281.309 73.9977 279.564 73.4877 279.006 73.6713C279.046 73.5897 279.069 73.4945 279.061 73.3993C279.03 73.1001 278.747 72.8757 278.409 72.8757C278.393 72.8757 278.378 72.8757 278.354 72.8757C277.992 72.9029 277.725 73.1749 277.749 73.4877C277.749 73.5081 277.757 73.5285 277.757 73.5421L275.76 74.6505C275.312 74.9021 274.762 74.9157 274.29 74.6913C273.819 74.4669 273.544 74.0589 273.544 73.5965V71.1145C273.544 70.0333 272.923 69.0337 271.877 68.4353C270.832 67.8369 269.519 67.7417 268.372 68.1633L264.568 69.6321L263.121 65.9669L246.222 59.4865C246.12 59.4457 245.994 59.4865 245.947 59.5817C245.9 59.6701 245.947 59.7789 246.057 59.8197L262.783 66.2389L268.749 81.3416C268.781 81.4164 268.859 81.4641 268.946 81.4641C268.969 81.4641 268.993 81.4573 269.016 81.4573C269.126 81.4233 269.181 81.3213 269.15 81.2261L264.709 69.9789L268.545 68.4965C269.567 68.1157 270.73 68.2041 271.649 68.7345C272.577 69.2649 273.127 70.1489 273.127 71.1145V73.5965C273.127 74.1949 273.489 74.7253 274.094 75.0109C274.377 75.1469 274.683 75.2149 274.99 75.2149C275.336 75.2149 275.682 75.1265 275.988 74.9565L277.969 73.8617C278.087 73.9569 278.244 74.0113 278.409 74.0113C278.425 74.0113 278.448 74.0113 278.464 74.0113C278.606 74.0045 278.731 73.9569 278.826 73.8821C278.826 74.3649 280.256 75.446 282.221 76.4116C282.646 76.6224 283.07 76.8129 283.471 76.9761C283.715 76.7993 283.919 76.5885 284.084 76.3369C284.249 76.0921 284.351 75.8269 284.398 75.5549C284.021 75.3509 283.62 75.1333 283.196 74.9225ZM278.425 73.7257C278.244 73.7393 278.095 73.6237 278.079 73.4741C278.063 73.3245 278.197 73.1885 278.37 73.1749C278.543 73.1613 278.7 73.2769 278.716 73.4265C278.731 73.5761 278.598 73.7121 278.425 73.7257Z" fill="#FFCF2D"/>
<path d="M249.311 77.2752L246.403 91.2696L256.315 84.66V75.9355L249.311 77.2752Z" fill="#A0505A"/>
<path d="M249.311 77.2752L248.95 79.0296L253.336 86.6456L256.315 84.66V75.9355L249.311 77.2752Z" fill="#73325A"/>
<path d="M250.569 68.4757C250.569 68.4757 245.609 67.4081 244.061 69.8969C242.512 72.3857 247.04 73.0725 247.228 72.2021C247.315 71.8213 239.078 71.8281 240.461 77.2205C241.899 82.8372 248.384 80.9061 248.384 80.9061L249.138 77.2749L250.569 68.4757Z" fill="white" stroke="#9A3B82" stroke-width="4" stroke-miterlimit="10"/>
<path d="M256.236 76.5266C256.236 76.5266 248.832 84.877 255.34 88.4266C260.559 91.269 261.903 87.2638 260.504 86.713C258.987 86.1146 255.505 97.4026 266.226 97.3686C276.971 97.3346 273.685 85.727 268.27 81.8782C265.684 80.0422 257.053 74.9082 257.053 74.9082L256.236 76.5266Z" fill="white" stroke="#9A3B82" stroke-width="4" stroke-miterlimit="10"/>
<path d="M256.016 74.4328L256.574 74.7388C257.116 75.038 257.274 75.6568 256.936 76.126L256.826 76.2688C256.48 76.738 255.764 76.8808 255.222 76.5816L254.625 76.2552C253.964 76.6632 249.995 78.9548 247.543 76.6768C245.161 74.4668 250.663 68 250.663 68C255.332 69.2648 257.156 72.8552 257.156 72.8552L256.016 74.4328Z" fill="#A0505A"/>
<path d="M249.13 69.4688C249.13 69.4688 250.42 69.8836 250.294 70.8424C250.168 71.8012 249.005 73.3108 249.28 73.5692C249.555 73.8276 249.924 73.8752 249.924 73.8752" stroke="#73325A" stroke-width="4" stroke-miterlimit="10" stroke-linecap="round"/>
<path d="M248.816 74.4531C248.816 74.4531 249.775 74.9155 251.08 74.7387" stroke="#73325A" stroke-width="4" stroke-miterlimit="10" stroke-linecap="round"/>
<path d="M252.926 73.0928C253.038 72.8401 253 72.593 252.842 72.5408C252.683 72.4887 252.465 72.6512 252.354 72.9039C252.242 73.1565 252.28 73.4036 252.438 73.4558C252.597 73.508 252.815 73.3454 252.926 73.0928Z" fill="#73325A"/>
<path d="M249.297 71.6517C249.39 71.4411 249.357 71.2346 249.223 71.1905C249.089 71.1463 248.905 71.2812 248.813 71.4918C248.72 71.7024 248.753 71.9088 248.887 71.953C249.021 71.9971 249.204 71.8622 249.297 71.6517Z" fill="#73325A"/>
<path d="M255.607 75.6023C255.827 75.3031 256.283 75.2147 256.629 75.4051" stroke="#73325A" stroke-width="4" stroke-miterlimit="10" stroke-linecap="round"/>
<path d="M252.707 71.2988C252.707 71.2988 253.666 71.5232 254.161 72.5092" stroke="#73325A" stroke-width="4" stroke-miterlimit="10" stroke-linecap="round"/>
<path d="M254.137 69.6465C254.137 69.6465 253.092 72.6453 256.087 74.6921C257.847 75.8957 257.949 74.4473 257.949 74.4473C257.949 74.4473 257.722 71.5029 254.137 69.6465Z" fill="white" stroke="#9A3B82" stroke-width="4" stroke-miterlimit="10"/>
<path d="M184.702 146.492C183.877 143.887 170.248 146.329 155.235 151.055C140.875 155.577 129.203 161.676 129.077 164.131L121.201 114.43C121.083 113.729 120.392 113.213 119.574 113.213C119.118 113.213 118.71 113.369 118.411 113.627C118.112 113.886 117.931 114.239 117.931 114.634V157.079C117.837 155.917 114.371 154.985 110.111 154.985C105.851 154.985 102.392 155.917 102.29 157.079V109.384C102.29 105.359 104.727 101.632 108.704 99.5514L113.868 96.8518L135.137 85.7406L154.921 75.323V57.541C154.921 58.3026 158.56 58.9146 162.851 58.9146C167.135 58.9146 170.782 58.3094 170.782 57.541V76.819C170.782 81.0894 168.369 85.1218 164.518 87.7874L152.484 95.2266C150.433 96.4914 149.937 98.953 151.368 100.748C159.346 110.737 183.861 139.889 184.694 146.301C184.702 146.363 184.702 146.431 184.702 146.492Z" fill="#3FB1B5"/>
<path d="M154.685 73.8008V79.0368" stroke="white" stroke-width="6" stroke-miterlimit="10" stroke-linecap="round"/>
<path d="M113.884 96.8514L140.112 112.029L135.153 85.7402L129.47 88.6506L130.806 99.4286L119.535 93.7914L113.884 96.8514Z" stroke="white" stroke-width="6" stroke-miterlimit="10" stroke-linecap="round"/>
<path d="M183.861 147.144C182.918 144.893 170.421 147.491 155.4 152.217C140.38 156.943 128.849 162.92 129.8 165.171C130.743 167.421 143.814 165.096 158.835 160.37C173.855 155.644 184.812 149.395 183.861 147.144Z" stroke="#3FB1B5" stroke-width="5" stroke-miterlimit="10" stroke-linecap="round"/>
<path d="M149.654 194.098L148.79 195.404L147.831 196.859C139.539 197.757 138.077 193.065 138.077 193.065L139.326 190.916C142.675 192.698 146.919 193.643 149.654 194.098Z" fill="#E57281"/>
<path d="M179.522 159.956C173.627 168.749 152.429 194.48 152.429 194.48C152.429 194.48 151.321 194.378 149.654 194.099C146.919 193.637 142.675 192.698 139.319 190.917C138.54 190.502 137.817 190.046 137.165 189.536L152.531 162.54L156.414 155.462L158.568 151.531C158.827 151.45 159.086 151.375 159.338 151.3C159.464 151.259 159.59 151.225 159.723 151.184C160.108 151.069 160.486 150.96 160.863 150.851C161.177 150.763 161.484 150.674 161.79 150.579C162.726 150.307 163.645 150.056 164.541 149.811C170.562 148.165 175.71 147.057 179.184 146.717C179.955 147.648 180.835 148.988 181.338 150.668C182.069 153.122 181.983 156.291 179.522 159.956Z" fill="white" stroke="#9A3B82" stroke-width="5" stroke-miterlimit="10"/>
<path d="M153.789 214.166C153.522 215.179 152.067 215.539 151.219 214.805L132.221 198.424L138.163 193.059C138.163 193.059 139.539 197.744 147.839 196.853C154.543 205.611 154.528 211.344 153.789 214.166Z" fill="white" stroke="#FE5244" stroke-width="5" stroke-miterlimit="10"/>
<path d="M153.011 215.2C151.722 215.628 150.267 215.404 149.222 214.608L139.303 207.067C139.059 206.876 139.028 206.557 139.232 206.332C139.429 206.122 139.413 205.809 139.185 205.618L138.375 204.938C138.155 204.748 137.802 204.741 137.566 204.918L137.377 205.054C137.149 205.224 136.819 205.224 136.599 205.054L131.27 201.049C130.578 200.532 130.555 199.607 131.207 199.056L132.134 198.281L151.25 214.975C151.8 215.451 152.594 215.472 153.16 215.152L153.011 215.2Z" fill="#FE5244"/>
<path d="M150.425 199.043C150.425 199.043 152.036 200.281 148.185 201.783" stroke="#FE5244" stroke-width="5" stroke-miterlimit="10" stroke-linecap="round"/>
<path d="M151.439 200.531C151.439 200.531 153.05 201.769 149.198 203.272" stroke="#FE5244" stroke-width="5" stroke-miterlimit="10" stroke-linecap="round"/>
<path d="M152.453 202.021C152.453 202.021 154.064 203.259 150.212 204.762" stroke="#FE5244" stroke-width="5" stroke-miterlimit="10" stroke-linecap="round"/>
<path d="M181.338 150.668C176.229 150.661 170.994 151.429 165.948 152.64C165.547 151.416 164.981 150.443 164.541 149.811C170.562 148.165 175.71 147.057 179.184 146.717C179.963 147.655 180.843 148.995 181.338 150.668Z" fill="#9A3B82"/>
<path d="M128.063 193.411L126.546 195.091L125.351 196.41C116.996 196.267 116.328 191.446 116.328 191.446L118.144 189.195C121.296 191.385 125.556 192.745 128.063 193.411Z" fill="#E57281"/>
<path d="M166.121 158.141C165.665 159.82 164.691 161.629 162.898 163.492C155.542 171.156 130.138 193.909 130.138 193.909C130.138 193.909 120.219 191.977 115.982 187.353L133.086 166.335L139.397 158.576C143.752 156.57 149.285 154.441 155.4 152.51C158.591 151.504 161.664 150.599 164.541 149.811C164.974 150.443 165.547 151.422 165.948 152.639C166.451 154.149 166.695 156.039 166.121 158.141Z" fill="white" stroke="#9A3B82" stroke-width="5" stroke-miterlimit="10"/>
<path d="M128.37 214.282C127.937 215.254 126.444 215.431 125.721 214.594L109.631 196.024L116.399 191.447C116.399 191.447 116.98 196.268 125.343 196.411C130.539 205.911 129.572 211.582 128.37 214.282Z" fill="white" stroke="#FE5244" stroke-width="5" stroke-miterlimit="10"/>
<path d="M127.434 215.152C126.09 215.417 124.683 215.009 123.787 214.105L115.22 205.428C115.008 205.21 115.031 204.891 115.267 204.694C115.503 204.51 115.526 204.197 115.338 203.98L114.646 203.211C114.457 203 114.112 202.946 113.844 203.089L113.64 203.204C113.388 203.34 113.066 203.3 112.87 203.109L108.232 198.506C107.635 197.907 107.761 196.996 108.499 196.534L109.545 195.881L125.713 214.71C126.177 215.247 126.963 215.363 127.576 215.125L127.434 215.152Z" fill="#FE5244"/>
<path d="M127.717 198.941C127.717 198.941 129.108 200.363 125.045 201.376" stroke="#FE5244" stroke-width="5" stroke-miterlimit="10" stroke-linecap="round"/>
<path d="M128.637 200.539C128.637 200.539 130.028 201.96 125.964 202.973" stroke="#FE5244" stroke-width="5" stroke-miterlimit="10" stroke-linecap="round"/>
<path d="M129.391 202.137C129.391 202.137 130.783 203.558 126.719 204.571" stroke="#FE5244" stroke-width="5" stroke-miterlimit="10" stroke-linecap="round"/>
<path d="M165.956 152.639C162.671 153.428 159.464 154.401 156.422 155.455C143.288 160.031 133.219 166.246 133.093 166.321L139.405 158.562C143.759 156.556 149.293 154.428 155.408 152.496C156.477 152.163 157.53 151.837 158.576 151.517C158.835 151.436 159.094 151.361 159.346 151.286C159.472 151.245 159.597 151.211 159.731 151.17C160.116 151.055 160.493 150.946 160.871 150.837C161.185 150.749 161.492 150.66 161.798 150.565C162.733 150.293 163.653 150.042 164.549 149.797C164.981 150.45 165.547 151.422 165.956 152.639Z" fill="#9A3B82"/>
<path d="M117.758 157.997C117.758 159.181 114.339 160.146 110.119 160.146C105.898 160.146 102.479 159.188 102.479 157.997C102.479 157.984 102.479 157.963 102.479 157.95C102.573 156.787 105.961 155.855 110.119 155.855C114.277 155.855 117.664 156.787 117.758 157.95C117.758 157.963 117.758 157.984 117.758 157.997Z" fill="white" stroke="#3FB1B5" stroke-width="5" stroke-miterlimit="10" stroke-linecap="round"/>
<path d="M114.677 156.4V161.983C114.677 163.792 113.522 165.444 111.683 166.294L108.547 167.736C107.784 168.09 106.927 168.273 106.063 168.273C105.693 168.273 105.442 168.008 105.442 167.729C105.442 167.614 105.489 167.491 105.583 167.389L106.755 166.165C106.92 165.995 106.778 165.744 106.527 165.744H99.6334L98.3758 167.117C97.7077 167.845 96.6859 168.273 95.6169 168.273H95.2554C94.8073 168.273 94.5322 167.858 94.7523 167.525L94.8938 167.301C94.4615 167.457 93.9899 167.546 93.5104 167.546H93.1489C92.7009 167.546 92.4257 167.131 92.6458 166.798L95.4676 164.105L97.4247 163.438V163.445L107.148 160.14V156.169C108.067 156.067 109.065 156.006 110.119 156.006C111.824 155.999 113.396 156.149 114.677 156.4Z" fill="#E57281"/>
<path d="M97.1732 163.723L94.8152 167.225" stroke="#9A3B82" stroke-width="4" stroke-miterlimit="10" stroke-linecap="round"/>
<path d="M106.157 166.777L107.603 165.247C107.886 164.948 107.643 164.506 107.195 164.506" stroke="#9A3B82" stroke-width="4" stroke-miterlimit="10" stroke-linecap="round"/>
<path d="M114.677 156.4V159.889C113.396 160.14 111.824 160.29 110.119 160.29C109.065 160.29 108.067 160.235 107.148 160.127V156.155C108.067 156.053 109.065 155.992 110.119 155.992C111.816 155.999 113.396 156.149 114.677 156.4Z" fill="#9A3B82"/>
<path d="M170.617 56.8149C170.617 57.5833 167.143 58.1884 162.859 58.1884C158.576 58.1884 155.101 57.5833 155.101 56.8149C155.101 56.0465 158.576 55.4141 162.859 55.4141C167.143 55.4141 170.617 56.0533 170.617 56.8149Z" stroke="#3FB1B5" stroke-width="5" stroke-miterlimit="10" stroke-linecap="round"/>
<path d="M160.493 57.9369C159.534 57.8825 158.662 57.8009 157.907 57.6853V51.0825C157.907 50.8649 157.962 50.6473 158.073 50.4501L160.541 46.0437C160.996 45.2277 161.955 44.7109 163.001 44.7109H166.027L159.409 55.2441C159.377 55.2917 159.354 55.3393 159.33 55.3869C158.945 56.2097 159.424 57.2637 160.493 57.9369Z" fill="#E57281"/>
<path d="M166.184 55.2637L167.159 53.7949V57.7797C166.357 57.8681 165.453 57.9429 164.486 57.9769L166.184 55.2637Z" fill="#9A3B82"/>
<path d="M180.442 32.2049L164.329 57.8546C163.732 58.8066 162.097 59.031 160.666 58.3578C159.236 57.6846 158.568 56.3722 159.165 55.427L175.278 29.7773L180.442 32.2049Z" fill="white" stroke="#FE5244" stroke-width="5" stroke-miterlimit="10"/>
<path d="M180.436 32.214C181.033 31.2637 180.361 29.9496 178.935 29.2789C177.508 28.6083 175.868 28.8349 175.271 29.7852C174.674 30.7355 175.346 32.0496 176.773 32.7202C178.199 33.3909 179.839 33.1643 180.436 32.214Z" fill="white" stroke="#FE5244" stroke-width="5" stroke-miterlimit="10"/>
<path d="M170.57 41.6157L178.186 36.1621L178.068 38.1477L180.505 38.6713L174.689 41.7789C179.153 40.9493 187.17 39.7797 188.389 41.8197C188.868 42.6221 187.964 44.2609 187.359 45.4373C186.982 47.9193 202.026 44.8457 202.199 44.8117L199.88 46.6681L202.199 47.8105C202.199 47.8105 189.575 49.8913 186.321 49.3201C184.482 48.9937 185.944 46.8585 187.225 45.2945C187.618 44.0909 184.49 43.6965 171.482 44.9205L170.57 41.6157Z" fill="#FE5244"/>
<path d="M170.68 44.8935C171.922 44.8935 172.928 44.0228 172.928 42.9487C172.928 41.8746 171.922 41.0039 170.68 41.0039C169.439 41.0039 168.432 41.8746 168.432 42.9487C168.432 44.0228 169.439 44.8935 170.68 44.8935Z" fill="white" stroke="#FE5244" stroke-width="5" stroke-miterlimit="10"/>
<path d="M172.441 49.4623L171.717 50.9311L170.869 52.6447L170.413 53.5763L169.713 54.9975C169.697 55.0383 169.674 55.0723 169.65 55.1131C169.65 55.1131 169.65 55.1199 169.642 55.1199C169.414 55.4531 168.982 55.6639 168.511 55.6639H162.961C162.293 55.6639 161.83 55.1131 162.081 54.6031L162.482 53.7871L163.37 51.9851L164.133 50.4347L164.801 49.0679C164.997 48.6667 165.477 48.4083 166.003 48.4083H171.552C172.236 48.4015 172.692 48.9523 172.441 49.4623Z" fill="#E57281"/>
<path d="M164.329 50.4278C164.557 50.2034 164.895 50.0742 165.256 50.0742H170.554C171.112 50.0742 171.513 50.489 171.458 50.931" stroke="#9A3B82" stroke-width="4" stroke-miterlimit="10" stroke-linecap="round"/>
<path d="M163.606 51.9847C163.834 51.7875 164.148 51.6719 164.486 51.6719H169.784C170.389 51.6719 170.813 52.1615 170.656 52.6443" stroke="#9A3B82" stroke-width="4" stroke-miterlimit="10" stroke-linecap="round"/>
<path d="M162.773 53.7807C163.001 53.5971 163.307 53.4883 163.629 53.4883H168.927C169.556 53.4883 169.988 54.0119 169.784 54.5083" stroke="#9A3B82" stroke-width="4" stroke-miterlimit="10" stroke-linecap="round"/>
<path d="M169.069 44.7031V44.8255C169.069 46.0699 167.905 47.0831 166.459 47.0831H163.724V44.7031H169.069Z" fill="#E57281"/>
<path d="M102.644 97.9013C102.392 98.2277 102.133 98.5337 101.873 98.8125C101.591 98.7513 101.315 98.6493 101.064 98.4997C100.812 98.3501 100.6 98.1733 100.427 97.9625C100.632 97.6565 100.86 97.3301 101.119 97.0037C102.392 95.3717 103.76 94.2497 104.184 94.4945C104.609 94.7393 103.917 96.2693 102.644 97.9013Z" fill="#FFCF2D"/>
<path d="M114.229 73.4004L104.412 85.9396C104.294 86.0892 104.459 86.2728 104.656 86.2252L109.348 84.9196C108.775 85.5112 108.421 86.2796 108.421 87.1092V91.06C108.421 92.6036 106.998 93.8616 105.222 93.9024C105.112 93.7256 104.892 93.6032 104.632 93.6032C104.452 93.6032 104.287 93.6644 104.161 93.7732C104.035 93.882 103.964 94.0248 103.972 94.1812C103.972 94.494 104.271 94.7524 104.64 94.7524C104.97 94.7524 105.245 94.5348 105.293 94.2628C107.258 94.188 108.837 92.7804 108.837 91.06V87.1092C108.837 86.1164 109.403 85.212 110.252 84.668L119.692 82.0432L131.812 73.4004H114.229ZM104.813 94.3172C104.766 94.358 104.703 94.3784 104.64 94.3784C104.577 94.3784 104.514 94.358 104.467 94.3172C104.42 94.2764 104.397 94.222 104.397 94.1676C104.397 94.1132 104.42 94.0588 104.467 94.018C104.514 93.9772 104.577 93.9568 104.64 93.9568C104.711 93.9568 104.766 93.9772 104.813 94.018C104.86 94.0588 104.884 94.1064 104.884 94.1676C104.892 94.2288 104.86 94.2764 104.813 94.3172Z" fill="#3FB1B5"/>
<path d="M103.556 85.9119C103.516 85.9119 103.477 85.9051 103.438 85.8779C103.343 85.8235 103.32 85.7079 103.383 85.6263L113.616 72.5566H132.15C132.268 72.5566 132.363 72.6382 132.363 72.7402C132.363 72.8422 132.268 72.9238 132.15 72.9238H113.836L103.728 85.8303C103.689 85.8847 103.626 85.9119 103.556 85.9119Z" fill="#3FB1B5"/>
<path d="M113.899 83.8031L112.72 83.3407L112.783 83.1843C112.807 83.1231 113.381 81.6815 114.795 80.1515C116.108 78.7303 118.411 76.9827 121.956 76.6835L122.16 76.6699L122.365 77.9551L121.948 78.0027L121.799 77.0643C118.513 77.3907 116.36 79.0363 115.125 80.3759C114.017 81.5727 113.436 82.7423 113.255 83.1503L114.08 83.4767L113.899 83.8031Z" fill="white"/>
<path d="M119.873 93.7166L117.491 86.9846L123.064 84.625L125.359 86.1346L129.305 88.7254L130.5 99.0206L119.873 93.7166Z" fill="#E57281"/>
<path d="M125.359 86.1346L121.107 94.3354L119.873 93.7166L117.491 86.9846L123.064 84.625L125.359 86.1346Z" fill="#9A3B82"/>
<path d="M120.635 87.4276C120.234 87.4616 119.425 87.108 118.505 86.6048L117.428 87.3596C116.808 87.7948 115.896 87.72 115.393 87.1828C115.173 86.9516 115.063 86.666 115.063 86.3872C115.063 86.0268 115.243 85.6664 115.597 85.4148L116.037 85.102C114.882 84.354 113.978 83.708 113.978 83.708C113.978 83.708 115.982 78.4992 122.388 77.9688C122.388 77.9688 125.784 84.0412 126.012 84.6192C126.24 85.204 122.899 87.2304 120.635 87.4276Z" fill="#E57281"/>
<path d="M116.037 85.1008C114.882 84.3528 113.978 83.7068 113.978 83.7068C113.978 83.7068 114.717 81.7824 116.745 80.1504C114.622 81.9796 117.79 84.0196 116.037 85.1008Z" fill="#FFCF2D"/>
<path d="M117.153 81.5913C117.153 81.5913 117.491 80.8025 118.348 80.3945" stroke="#9A3B82" stroke-width="4" stroke-miterlimit="10" stroke-linecap="round"/>
<path d="M123.284 79.5931C123.284 79.5931 122.097 79.4503 121.508 79.7631C120.918 80.0759 120.918 81.6943 121.861 82.7075" stroke="#9A3B82" stroke-width="4" stroke-miterlimit="10" stroke-linecap="round"/>
<path d="M122.427 83.7207C122.427 83.7207 121.696 84.2851 120.454 83.8703" stroke="#9A3B82" stroke-width="4" stroke-miterlimit="10" stroke-linecap="round"/>
<path d="M120.572 83.5723C120.572 83.5723 120.313 83.8919 120.329 84.2523" stroke="#9A3B82" stroke-width="4" stroke-miterlimit="10" stroke-linecap="round"/>
<path d="M119.035 82.6107C119.161 82.5815 119.209 82.3843 119.143 82.1703C119.076 81.9563 118.92 81.8066 118.795 81.8358C118.669 81.865 118.621 82.0621 118.687 82.2761C118.754 82.4901 118.909 82.6399 119.035 82.6107Z" fill="#9A3B82"/>
<path d="M122.549 81.2783C122.662 81.252 122.704 81.069 122.642 80.8695C122.58 80.67 122.438 80.5296 122.325 80.5559C122.212 80.5822 122.17 80.7652 122.232 80.9647C122.294 81.1642 122.436 81.3046 122.549 81.2783Z" fill="#9A3B82"/>
<path d="M118.914 87.0114L117.098 85.7874C116.894 85.6514 116.611 85.665 116.422 85.8146L116.312 85.903C116.1 86.0798 116.1 86.3654 116.312 86.5422" stroke="#9A3B82" stroke-width="4" stroke-miterlimit="10" stroke-linecap="round"/>
</svg>
