<svg width="17" height="17" viewBox="0 0 17 17" fill="none" xmlns="http://www.w3.org/2000/svg">
<rect x="1" y="1" width="6.66667" height="15" rx="2" stroke="#636F7E" stroke-width="1.5" stroke-linecap="round" stroke-linejoin="round"/>
<path d="M4.33337 15.9997L12.8 15.9997C13.9201 15.9997 14.4802 15.9997 14.908 15.7817C15.2843 15.5899 15.5903 15.284 15.7821 14.9077C16 14.4798 16 13.9198 16 12.7997V12.533C16 11.4129 16 10.8529 15.7821 10.425C15.5903 10.0487 15.2843 9.74274 14.908 9.55099C14.4802 9.33301 13.9201 9.33301 12.8 9.33301L12.6667 9.33301" stroke="#636F7E" stroke-width="1.5" stroke-linecap="round" stroke-linejoin="round"/>
<circle cx="4.33333" cy="12.6663" r="0.833333" fill="#636F7E"/>
<path d="M7.66663 5.16637L9.57018 3.26273C10.3622 2.4707 10.7582 2.07468 11.2148 1.92629C11.6165 1.79576 12.0492 1.79575 12.4509 1.92624C12.9075 2.0746 13.3035 2.47058 14.0956 3.26255L14.1536 3.32059C14.9458 4.11262 15.3418 4.50864 15.4902 4.9653C15.6207 5.367 15.6208 5.79971 15.4902 6.20141C15.3419 6.65809 14.9458 7.05412 14.1538 7.8462L7.66663 14.3333" stroke="#636F7E" stroke-width="1.5" stroke-linecap="round" stroke-linejoin="round"/>
</svg>
