<svg width="19" height="21" viewBox="0 0 19 21" fill="none" xmlns="http://www.w3.org/2000/svg">
<path fill-rule="evenodd" clip-rule="evenodd" d="M6.24359 0.75C6.24359 0.335786 5.9078 0 5.49359 0C5.07938 0 4.74359 0.335786 4.74359 0.75V1.93489C4.64669 1.94052 4.55278 1.94698 4.46173 1.95442C3.74835 2.01271 3.14472 2.13432 2.59355 2.41515C1.69978 2.87055 0.973118 3.59721 0.517719 4.49098C0.236882 5.04216 0.115274 5.64578 0.0569879 6.35917C-1.0022e-05 7.05679 -5.49206e-06 7.92229 1.1078e-07 9.01443L1.1078e-07 9.04743L1.1078e-07 13.3244L1.1078e-07 13.3574C-5.49206e-06 14.4495 -1.0022e-05 15.315 0.0569879 16.0126C0.115274 16.726 0.236882 17.3296 0.517719 17.8808C0.973118 18.7746 1.69978 19.5012 2.59355 19.9566C3.14472 20.2375 3.74834 20.3591 4.46173 20.4174C5.15935 20.4744 6.02484 20.4744 7.11698 20.4744H7.15H11.4269H11.4599C12.5521 20.4744 13.4176 20.4744 14.1152 20.4174C14.8286 20.3591 15.4322 20.2375 15.9834 19.9566C16.8771 19.5012 17.6038 18.7746 18.0592 17.8808C18.34 17.3296 18.4616 16.726 18.5199 16.0126C18.5769 15.315 18.5769 14.4495 18.5769 13.3574V13.3244V9.04744V9.01442C18.5769 7.92228 18.5769 7.05679 18.5199 6.35917C18.4616 5.64578 18.34 5.04216 18.0592 4.49098C17.6038 3.59721 16.8771 2.87055 15.9834 2.41515C15.4322 2.13432 14.8286 2.01271 14.1152 1.95442C14.0241 1.94698 13.9302 1.94052 13.8333 1.93489V0.75C13.8333 0.335786 13.4975 0 13.0833 0C12.6691 0 12.3333 0.335786 12.3333 0.75V1.89872C12.0594 1.89743 11.7687 1.89743 11.4599 1.89744L11.4269 1.89744L10.0385 1.89744V0.75C10.0385 0.335786 9.70267 0 9.28846 0C8.87425 0 8.53846 0.335786 8.53846 0.75V1.89744H7.15L7.117 1.89744C6.80819 1.89743 6.51749 1.89743 6.24359 1.89872V0.75ZM12.3333 3.39881C12.0563 3.39749 11.7554 3.39744 11.4269 3.39744H10.0385V4.54487C10.0385 4.95909 9.70267 5.29487 9.28846 5.29487C8.87425 5.29487 8.53846 4.95909 8.53846 4.54487V3.39744H7.15C6.82149 3.39744 6.5206 3.39749 6.24359 3.39881L6.24359 4.54487C6.24359 4.95909 5.9078 5.29487 5.49359 5.29487C5.07938 5.29487 4.74359 4.95909 4.74359 4.54487L4.74359 3.43771C4.6891 3.44129 4.6359 3.44519 4.58388 3.44944C3.96325 3.50015 3.579 3.59653 3.27453 3.75166C2.663 4.06325 2.16582 4.56044 1.85423 5.17197C1.69909 5.47644 1.60271 5.86069 1.55201 6.48132C1.50058 7.1107 1.5 7.91495 1.5 9.04743L1.5 13.3244C1.5 14.4568 1.50058 15.2611 1.55201 15.8905C1.60271 16.5111 1.69909 16.8954 1.85423 17.1998C2.16582 17.8114 2.663 18.3085 3.27453 18.6201C3.579 18.7753 3.96325 18.8716 4.58388 18.9224C5.21326 18.9738 6.01752 18.9744 7.15 18.9744H11.4269C12.5594 18.9744 13.3637 18.9738 13.993 18.9224C14.6137 18.8716 14.9979 18.7753 15.3024 18.6201C15.9139 18.3085 16.4111 17.8114 16.7227 17.1998C16.8778 16.8954 16.9742 16.5111 17.0249 15.8905C17.0763 15.2611 17.0769 14.4568 17.0769 13.3244V9.04744C17.0769 7.91496 17.0763 7.1107 17.0249 6.48132C16.9742 5.86069 16.8778 5.47644 16.7227 5.17197C16.4111 4.56044 15.9139 4.06325 15.3024 3.75166C14.9979 3.59653 14.6137 3.50015 13.993 3.44944C13.941 3.44519 13.8878 3.44129 13.8333 3.43771V4.54487C13.8333 4.95909 13.4975 5.29487 13.0833 5.29487C12.6691 5.29487 12.3333 4.95909 12.3333 4.54487V3.39881ZM3.79487 8.33974C3.79487 7.92553 4.13066 7.58974 4.54487 7.58974L14.0321 7.58974C14.4463 7.58974 14.7821 7.92553 14.7821 8.33974C14.7821 8.75396 14.4463 9.08974 14.0321 9.08974L4.54487 9.08974C4.13066 9.08974 3.79487 8.75396 3.79487 8.33974ZM4.54487 11.3846C4.13066 11.3846 3.79487 11.7204 3.79487 12.1346C3.79487 12.5488 4.13066 12.8846 4.54487 12.8846L10.2372 12.8846C10.6514 12.8846 10.9872 12.5488 10.9872 12.1346C10.9872 11.7204 10.6514 11.3846 10.2372 11.3846L4.54487 11.3846ZM3.79487 15.9295C3.79487 15.5153 4.13066 15.1795 4.54487 15.1795H6.44231C6.85652 15.1795 7.19231 15.5153 7.19231 15.9295C7.19231 16.3437 6.85652 16.6795 6.44231 16.6795H4.54487C4.13066 16.6795 3.79487 16.3437 3.79487 15.9295Z" fill="#174542" fill-opacity="0.65"/>
</svg>
