<svg width="20" height="22" viewBox="0 0 20 22" fill="none" xmlns="http://www.w3.org/2000/svg">
<path d="M4.37474 21.5645H18.7949C18.9389 21.5645 19.0557 21.4343 19.0557 21.2737V0.672578C19.0557 0.511977 18.9389 0.381836 18.7949 0.381836H7.09186C7.01984 0.381836 6.95154 0.415064 6.90186 0.473212L4.18598 3.69768C4.14003 3.75167 4.11519 3.82228 4.11519 3.89704L4.11395 21.2737C4.11395 21.3512 4.14127 21.4246 4.19095 21.4786C4.24062 21.5326 4.30519 21.5645 4.37474 21.5645ZM18.5341 20.983H4.63552L4.63676 4.01196L7.20363 0.96332H18.5341V20.983Z" fill="#CF2A2A"/>
<path d="M4.42802 4.18707H7.09175C7.23581 4.18707 7.35254 4.05693 7.35254 3.89633V0.743866C7.35254 0.583266 7.23581 0.453125 7.09175 0.453125C6.9477 0.453125 6.83097 0.583266 6.83097 0.743866V3.60559H4.42802C4.28397 3.60559 4.16724 3.73573 4.16724 3.89633C4.16724 4.05693 4.28397 4.18707 4.42802 4.18707Z" fill="#CF2A2A"/>
<path d="M0.884379 7.27582H2.94332C3.08737 7.27582 3.2041 7.14568 3.2041 6.98508C3.2041 6.82448 3.08737 6.69434 2.94332 6.69434H0.884379C0.740327 6.69434 0.623596 6.82448 0.623596 6.98508C0.623596 7.14568 0.740327 7.27582 0.884379 7.27582Z" fill="#CF2A2A"/>
<path d="M0.883375 16.0654C1.02743 16.0654 1.14416 15.9353 1.14416 15.7747V5.61258C1.14416 5.37168 1.22488 5.14601 1.37266 4.9771C1.51795 4.81096 1.7092 4.7182 1.91286 4.7182C2.33632 4.7182 2.68155 5.1197 2.68155 5.61119V15.7733C2.68155 15.9339 2.79829 16.064 2.94234 16.064C3.08639 16.064 3.20312 15.9339 3.20312 15.7733V5.61119C3.20312 4.7985 2.62443 4.13672 1.91286 4.13672C1.56639 4.13672 1.24102 4.29178 0.997623 4.57145C0.755465 4.84973 0.622589 5.21938 0.622589 5.61119V15.7733C0.622589 15.9353 0.739322 16.0654 0.883375 16.0654Z" fill="#CF2A2A"/>
<path d="M1.91359 18.8127C2.01915 18.8127 2.11352 18.742 2.1545 18.6341L3.18397 15.8873C3.2175 15.7973 3.20881 15.6948 3.16038 15.6145C3.11195 15.5342 3.02999 15.4844 2.94306 15.4844H0.884119C0.797192 15.4844 0.715231 15.5328 0.6668 15.6145C0.618369 15.6948 0.609676 15.7987 0.643205 15.8873L1.67268 18.6341C1.71366 18.742 1.80928 18.8127 1.91359 18.8127ZM2.55189 16.0659L1.91359 17.7674L1.27529 16.0659H2.55189Z" fill="#CF2A2A"/>
<path d="M13.2993 7.5271H16.6113C16.7553 7.5271 16.8721 7.39696 16.8721 7.23636V3.27121C16.8721 3.11061 16.7553 2.98047 16.6113 2.98047H13.2993C13.1552 2.98047 13.0385 3.11061 13.0385 3.27121V7.23636C13.0385 7.39696 13.1552 7.5271 13.2993 7.5271ZM16.3505 6.94562H13.5601V3.56195H16.3505V6.94562Z" fill="#CF2A2A"/>
<path d="M6.55769 9.43307H16.6103C16.7544 9.43307 16.8711 9.30293 16.8711 9.14232C16.8711 8.98171 16.7544 8.85156 16.6103 8.85156H6.55769C6.41364 8.85156 6.29691 8.98171 6.29691 9.14232C6.29691 9.30293 6.41364 9.43307 6.55769 9.43307Z" fill="#CF2A2A"/>
<path d="M10.201 11.3393H16.6113C16.7553 11.3393 16.8721 11.2092 16.8721 11.0486C16.8721 10.888 16.7553 10.7578 16.6113 10.7578H10.201C10.0569 10.7578 9.94019 10.888 9.94019 11.0486C9.94019 11.2092 10.0569 11.3393 10.201 11.3393Z" fill="#CF2A2A"/>
<path d="M6.55885 11.3393H9.28218C9.42624 11.3393 9.54297 11.2092 9.54297 11.0486C9.54297 10.888 9.42624 10.7578 9.28218 10.7578H6.55885C6.4148 10.7578 6.29807 10.888 6.29807 11.0486C6.29807 11.2092 6.4148 11.3393 6.55885 11.3393Z" fill="#CF2A2A"/>
<path d="M6.5587 13.2466H16.6113C16.7553 13.2466 16.8721 13.1164 16.8721 12.9558C16.8721 12.7952 16.7553 12.665 16.6113 12.665H6.5587C6.41464 12.665 6.29791 12.7952 6.29791 12.9558C6.29791 13.1164 6.41464 13.2466 6.5587 13.2466Z" fill="#CF2A2A"/>
<path d="M8.69938 3.71234H11.8574C12.0014 3.71234 12.1182 3.5822 12.1182 3.4216C12.1182 3.261 12.0014 3.13086 11.8574 3.13086H8.69938C8.55533 3.13086 8.4386 3.261 8.4386 3.4216C8.4386 3.5822 8.55657 3.71234 8.69938 3.71234Z" fill="#CF2A2A"/>
<path d="M6.55848 5.61859H11.8574C12.0014 5.61859 12.1182 5.48845 12.1182 5.32785C12.1182 5.16725 12.0014 5.03711 11.8574 5.03711H6.55848C6.41443 5.03711 6.2977 5.16725 6.2977 5.32785C6.2977 5.48845 6.41443 5.61859 6.55848 5.61859Z" fill="#CF2A2A"/>
<path d="M6.55848 7.52777H11.8574C12.0014 7.52777 12.1182 7.39763 12.1182 7.23703C12.1182 7.07643 12.0014 6.94629 11.8574 6.94629H6.55848C6.41443 6.94629 6.2977 7.07643 6.2977 7.23703C6.2977 7.39763 6.41443 7.52777 6.55848 7.52777Z" fill="#CF2A2A"/>
<path d="M13.5539 15.1528H16.6113C16.7553 15.1528 16.8721 15.0226 16.8721 14.862C16.8721 14.7014 16.7553 14.5713 16.6113 14.5713H13.5539C13.4099 14.5713 13.2931 14.7014 13.2931 14.862C13.2931 15.0226 13.4099 15.1528 13.5539 15.1528Z" fill="#CF2A2A"/>
<path d="M6.55858 15.1528H12.6845C12.8286 15.1528 12.9453 15.0226 12.9453 14.862C12.9453 14.7014 12.8286 14.5713 12.6845 14.5713H6.55858C6.41452 14.5713 6.29779 14.7014 6.29779 14.862C6.29779 15.0226 6.41452 15.1528 6.55858 15.1528Z" fill="#CF2A2A"/>
<path d="M6.55867 17.06H16.6113C16.7553 17.06 16.8721 16.9298 16.8721 16.7692C16.8721 16.6086 16.7553 16.4785 16.6113 16.4785H6.55867C6.41461 16.4785 6.29788 16.6086 6.29788 16.7692C6.29788 16.9298 6.41461 17.06 6.55867 17.06Z" fill="#CF2A2A"/>
<path d="M9.92775 18.9672H16.6113C16.7553 18.9672 16.8721 18.8371 16.8721 18.6765C16.8721 18.5159 16.7553 18.3857 16.6113 18.3857H9.92775C9.78369 18.3857 9.66696 18.5159 9.66696 18.6765C9.66696 18.8371 9.78369 18.9672 9.92775 18.9672Z" fill="#CF2A2A"/>
<path d="M6.55803 18.9672H9.15718C9.30124 18.9672 9.41797 18.8371 9.41797 18.6765C9.41797 18.5159 9.30124 18.3857 9.15718 18.3857H6.55803C6.41397 18.3857 6.29724 18.5159 6.29724 18.6765C6.29724 18.8371 6.41397 18.9672 6.55803 18.9672Z" fill="#CF2A2A"/>
</svg>
