<svg width="50" height="50" viewBox="0 0 50 50" fill="none" xmlns="http://www.w3.org/2000/svg">
<circle cx="25" cy="25" r="25" fill="#102F55"/>
<g clip-path="url(#clip0)">
<path d="M29.88 17.3982H31.3843C32.3792 17.3982 33.2834 17.8641 33.9384 18.6142C34.5932 19.3643 35 20.4003 35 21.5396V30.8585C35 31.9981 34.5933 33.0338 33.9385 33.7839C33.2836 34.5341 32.3792 35 31.3843 35H18.6157C17.6208 35 16.7166 34.5341 16.0617 33.7839C15.4068 33.0338 15 31.9981 15 30.8585V21.5396C15 20.4 15.4068 19.3642 16.0617 18.6141C16.7166 17.8639 17.6208 17.3982 18.6157 17.3982H20.1201C20.2623 16.8706 20.5401 16.4065 20.8817 16.0312C21.4626 15.3929 22.26 15 22.8773 15H27.1226C27.74 15 28.5375 15.3929 29.1183 16.0312C29.4598 16.4065 29.7375 16.8706 29.8799 17.3982H29.88ZM25 21.1515C26.2166 21.1515 27.3186 21.7167 28.116 22.63C28.9135 23.5435 29.4069 24.8056 29.4069 26.1992C29.4069 27.5927 28.9135 28.8548 28.116 29.7683C27.3184 30.6816 26.2168 31.2468 25 31.2468C23.7832 31.2468 22.6816 30.6816 21.884 29.7683C21.0866 28.8547 20.5932 27.5928 20.5932 26.1992C20.5932 24.8055 21.0866 23.5436 21.884 22.63C22.6814 21.7167 23.7834 21.1515 25 21.1515ZM27.1575 23.7281C26.6055 23.0958 25.8427 22.7048 25 22.7048C24.1574 22.7048 23.3945 23.0958 22.8426 23.7281C22.2908 24.3603 21.9493 25.2341 21.9493 26.1992C21.9493 27.1642 22.2908 28.0381 22.8426 28.6703C23.3945 29.3024 24.1574 29.6936 25 29.6936C25.8425 29.6936 26.6055 29.3024 27.1575 28.6703C27.7094 28.0381 28.0508 27.1643 28.0508 26.1992C28.0508 25.234 27.7094 24.3603 27.1575 23.7281ZM31.3843 18.9514H29.305C28.9307 18.9514 28.6271 18.6037 28.6271 18.1749C28.6271 17.7915 28.4392 17.4312 28.1808 17.1475C27.8462 16.7797 27.4248 16.5533 27.1227 16.5533H22.8774C22.5753 16.5533 22.1539 16.7797 21.8193 17.1475C21.5609 17.4313 21.373 17.7915 21.373 18.1749C21.373 18.6037 21.0695 18.9514 20.6951 18.9514H18.6158C17.995 18.9514 17.4301 19.2429 17.0204 19.7122C16.6107 20.1815 16.3561 20.8286 16.3561 21.5397V30.8586C16.3561 31.5695 16.6107 32.2168 17.0204 32.686C17.4302 33.1553 17.9951 33.4469 18.6158 33.4469H31.3844C32.0052 33.4469 32.5703 33.1553 32.9799 32.686C33.3897 32.2167 33.6441 31.5697 33.6441 30.8586V21.5397C33.6441 20.8288 33.3896 20.1815 32.9798 19.7124C32.57 19.243 32.0051 18.9514 31.3844 18.9514H31.3843Z" fill="white"/>
</g>
<defs>
<clipPath id="clip0">
<rect width="20" height="20" fill="white" transform="translate(15 15)"/>
</clipPath>
</defs>
</svg>
