<svg width="19" height="18" viewBox="0 0 19 18" fill="none" xmlns="http://www.w3.org/2000/svg">
<g clip-path="url(#clip0)">
<path d="M9.42481 0.541016C7.74367 0.541016 6.10028 1.03953 4.70246 1.97352C3.30464 2.90752 2.21518 4.23503 1.57183 5.7882C0.928488 7.34138 0.760159 9.05044 1.08813 10.6993C1.41611 12.3481 2.22565 13.8627 3.4144 15.0514C4.60315 16.2402 6.1177 17.0497 7.76654 17.3777C9.41538 17.7057 11.1244 17.5373 12.6776 16.894C14.2308 16.2506 15.5583 15.1612 16.4923 13.7634C17.4263 12.3655 17.9248 10.7222 17.9248 9.04101C17.9248 7.92478 17.7049 6.81947 17.2778 5.7882C16.8506 4.75694 16.2245 3.81991 15.4352 3.03061C14.6459 2.24131 13.7089 1.6152 12.6776 1.18804C11.6463 0.760875 10.541 0.541016 9.42481 0.541016ZM10.0283 13.8945C9.94569 13.9696 9.85081 14.03 9.74781 14.073C9.64606 14.118 9.53605 14.1412 9.42481 14.1412C9.31357 14.1412 9.20355 14.118 9.10181 14.073C8.9988 14.03 8.90393 13.9696 8.82131 13.8945C8.74253 13.8151 8.6802 13.7209 8.6379 13.6173C8.5956 13.5138 8.57416 13.4029 8.57481 13.291C8.57416 13.1791 8.5956 13.0683 8.6379 12.9647C8.6802 12.8611 8.74253 12.7669 8.82131 12.6875C8.92026 12.5895 9.04178 12.5173 9.17517 12.4773C9.30857 12.4373 9.44975 12.4307 9.58631 12.458C9.64261 12.4659 9.69719 12.4831 9.74781 12.509C9.80197 12.5276 9.85342 12.5533 9.90081 12.5855C9.94534 12.6169 9.98792 12.651 10.0283 12.6875C10.1836 12.8504 10.2717 13.066 10.2748 13.291C10.2755 13.4029 10.254 13.5138 10.2117 13.6173C10.1694 13.7209 10.1071 13.8151 10.0283 13.8945ZM10.2748 9.89101C10.2748 10.1164 10.1853 10.3326 10.0258 10.4921C9.86644 10.6515 9.65024 10.741 9.42481 10.741C9.19937 10.741 8.98317 10.6515 8.82377 10.4921C8.66436 10.3326 8.57481 10.1164 8.57481 9.89101V4.79101C8.57481 4.56558 8.66436 4.34938 8.82377 4.18997C8.98317 4.03057 9.19937 3.94101 9.42481 3.94101C9.65024 3.94101 9.86644 4.03057 10.0258 4.18997C10.1853 4.34938 10.2748 4.56558 10.2748 4.79101V9.89101Z" fill="white"/>
</g>
<defs>
<clipPath id="clip0">
<rect width="17.85" height="17" fill="white" transform="translate(0.5 0.541016)"/>
</clipPath>
</defs>
</svg>
