<svg width="26" height="28" viewBox="0 0 26 28" fill="none" xmlns="http://www.w3.org/2000/svg">
<path d="M7.38192 23.1774L5.49164 22.9271L4.64666 21.3665C4.52423 21.1404 4.27642 21 4.00011 21C3.72358 21 3.47598 21.1404 3.35334 21.3665L2.50836 22.9271L0.618291 23.1774C0.344301 23.2137 0.120971 23.3856 0.0356923 23.6259C-0.0495866 23.8661 0.0204941 24.1246 0.218704 24.3007L1.5857 25.515L1.26316 27.2295C1.2163 27.4779 1.32585 27.7244 1.54918 27.873C1.67583 27.9573 1.82402 27.9999 1.97325 27.9999C2.08787 27.9999 2.20292 27.9748 2.3093 27.9239L4.00011 27.1137L5.69091 27.9239C5.93598 28.0414 6.22728 28.0217 6.45082 27.873C6.67415 27.7244 6.7837 27.4779 6.73705 27.2295L6.4143 25.515L7.7813 24.3007C7.97951 24.1246 8.04959 23.8661 7.96431 23.6259C7.87903 23.3856 7.65591 23.2137 7.38192 23.1774ZM5.81524 25.0144C5.64489 25.1656 5.56721 25.3836 5.60753 25.5975L5.90748 27.1913L4.33531 26.438C4.2304 26.3878 4.11536 26.3628 4.00011 26.3628C3.88506 26.3628 3.76981 26.3878 3.6649 26.4382L2.09294 27.1913L2.39268 25.5977C2.433 25.3838 2.35553 25.1656 2.18497 25.0144L0.9155 23.8865L2.67089 23.6541C2.90583 23.623 3.1089 23.4884 3.21402 23.2941L4.00011 21.8426L4.78619 23.2943C4.89152 23.4884 5.09459 23.623 5.32932 23.6541L7.08471 23.8865L5.81524 25.0144Z" fill="#3050B9"/>
<path d="M16.3818 23.1774L14.4918 22.927L13.6466 21.3667C13.5242 21.1404 13.2764 21 13.0001 21C12.7235 21 12.4759 21.1404 12.3533 21.3665L11.5083 22.927L9.61828 23.1774C9.3443 23.2137 9.12097 23.3855 9.03569 23.6259C8.95041 23.866 9.02049 24.1245 9.2187 24.3006L10.5857 25.5149L10.2631 27.2294C10.2163 27.4778 10.3261 27.7245 10.5492 27.8731C10.6758 27.9572 10.824 28 10.9732 28C11.0879 28 11.2029 27.9747 11.3093 27.9238L13.0001 27.1136L14.6906 27.9238C14.9359 28.0413 15.2272 28.0216 15.4508 27.8729C15.6741 27.7245 15.7836 27.4778 15.737 27.2294L15.4142 25.5149L16.7812 24.3006C16.9794 24.1245 17.0495 23.866 16.9644 23.6259C16.879 23.3855 16.6558 23.2137 16.3818 23.1774ZM12.9203 21.6952C12.9201 21.6952 12.9203 21.6952 12.9203 21.6952V21.6952ZM14.8152 25.0142C14.6448 25.1654 14.5672 25.3836 14.6073 25.5975L14.9072 27.1912L13.3353 26.4379C13.2304 26.3878 13.1153 26.3627 13.0001 26.3627C12.885 26.3627 12.7698 26.3878 12.6649 26.4381L11.0927 27.1912L11.3929 25.5975C11.433 25.3836 11.3553 25.1656 11.185 25.0144L9.91549 23.8865L11.6709 23.6541C11.9058 23.623 12.1089 23.4884 12.214 23.2941L13.0001 21.8426L13.7861 23.2941C13.8913 23.4884 14.0943 23.623 14.3293 23.6541L16.0846 23.8865L14.8152 25.0142Z" fill="#3050B9"/>
<path d="M25.9688 23.6259C25.8942 23.3855 25.6987 23.2137 25.459 23.1774L23.8052 22.927L23.0659 21.3667C22.9586 21.1404 22.7418 21 22.5 21C22.2582 21 22.0414 21.1404 21.9343 21.3665L21.1947 22.927L19.541 23.1774C19.3012 23.2137 19.1058 23.3855 19.0312 23.6259C18.9566 23.866 19.0181 24.1245 19.1915 24.3006L20.3876 25.5149L20.1052 27.2294C20.0644 27.4778 20.1602 27.7245 20.3555 27.8731C20.4665 27.9572 20.5959 28 20.7267 28C20.8268 28 20.9275 27.9747 21.0206 27.9238L22.5 27.1136L23.9794 27.9238C24.1938 28.0413 24.4485 28.0216 24.6443 27.8729C24.8397 27.7245 24.9356 27.4778 24.8948 27.2294C24.8615 27.0278 24.6787 26.8926 24.4851 26.9271C24.3403 26.9532 24.2311 27.0673 24.1997 27.2082L22.7933 26.4379C22.6097 26.3374 22.3905 26.3374 22.2067 26.4379L20.8312 27.191L21.0937 25.5973C21.1288 25.3834 21.0608 25.1654 20.9118 25.0142L19.801 23.8865L21.3369 23.6541C21.5425 23.623 21.7202 23.4884 21.8122 23.2941L22.5 21.8426L23.1878 23.2941C23.2798 23.4884 23.4576 23.623 23.663 23.6541L25.1991 23.8865L24.0884 25.0142C23.9393 25.1654 23.8712 25.3836 23.9064 25.5975L23.9925 26.1208C24.0258 26.3224 24.2092 26.4578 24.4022 26.4231C24.5952 26.3884 24.7248 26.1968 24.6916 25.9952L24.6125 25.5151L25.8086 24.3006C25.9821 24.1245 26.0434 23.866 25.9688 23.6259Z" fill="#3050B9"/>
<path d="M13.0001 18C15.1448 18 17.1161 17.2456 18.6639 15.9888C18.6999 15.9674 18.732 15.941 18.7596 15.9103C20.7386 14.2579 22 11.7738 22 9C22.0002 4.03739 17.9627 0 13.0001 0C8.03748 0 4 4.03739 4 9C4 13.9626 8.03748 18 13.0001 18ZM13.0001 0.818822C17.5125 0.818822 21.1835 4.48881 21.1835 9C21.1835 11.3063 20.2237 13.3924 18.6829 14.881C18.3279 13.9166 17.5567 13.1555 16.555 12.819L15.572 12.4885C15.3925 12.4286 15.229 12.3267 15.0984 12.1928C15.095 12.1889 15.0914 12.1855 15.0878 12.1817C15.0854 12.1793 15.0833 12.177 15.0809 12.1746C15.0799 12.1736 15.0788 12.1723 15.0778 12.1712C14.8693 11.948 14.7547 11.6567 14.7547 11.3498V10.2031L15.1652 9.95337C15.7037 9.62542 16.0382 9.02985 16.0382 8.39889V6.65634C16.0382 6.65527 16.0382 6.6542 16.0382 6.65314V5.13619C16.0382 4.01457 15.1262 3.10214 14.0054 3.10214H11.9944C10.8733 3.10214 9.96136 4.01457 9.96136 5.13619V6.44673V6.44779V8.39868C9.96136 9.02964 10.2961 9.62542 10.8346 9.95316L11.2459 10.2035V11.3498C11.2459 11.6797 11.1083 11.9981 10.8682 12.225C10.8659 12.2271 10.8638 12.2294 10.8614 12.2316C10.7372 12.3471 10.5909 12.4335 10.4269 12.4887L9.44477 12.819C9.06727 12.9461 8.71784 13.1357 8.40541 13.3826C8.23676 13.5165 8.0798 13.6673 7.9388 13.8304C7.7912 14.0014 7.80991 14.2601 7.98048 14.4081C8.05768 14.475 8.15275 14.5079 8.24739 14.5079C8.36181 14.5079 8.4756 14.4599 8.55641 14.3665C8.66382 14.242 8.78355 14.1268 8.9118 14.0253C9.14978 13.837 9.4167 13.6922 9.70466 13.5952L10.6866 13.2651C10.8801 13.2001 11.0592 13.1078 11.2217 12.9909C11.7593 13.1609 12.3153 13.2468 12.8789 13.2468C12.9187 13.2468 12.9582 13.2461 12.998 13.2455C13.5803 13.2327 14.1532 13.1287 14.7047 12.9355C14.8863 13.079 15.0929 13.1918 15.3134 13.2651L16.2953 13.5954C17.1603 13.8858 17.799 14.5914 18.0074 15.4663C16.6224 16.5406 14.8849 17.1812 13.0001 17.1812C8.48772 17.1812 4.81668 13.5112 4.81668 9C4.81668 4.48881 8.48772 0.818822 13.0001 0.818822ZM15.2217 6.09041L12.2662 5.14045C12.1626 5.1074 12.0499 5.11678 11.9531 5.16711L10.7783 5.77973V5.13619C10.7783 4.4662 11.3238 3.92096 11.9944 3.92096H14.0054C14.676 3.92096 15.2217 4.4662 15.2217 5.13619V6.09041ZM10.778 6.70261L12.179 5.97249L15.2217 6.95039V8.39889C15.2217 8.74561 15.0376 9.07293 14.7413 9.25332L13.5212 9.99602C13.1996 10.1918 12.8002 10.1918 12.4788 9.99602L11.2587 9.25332C10.9624 9.07314 10.7783 8.74561 10.7783 8.39889V6.70261H10.778ZM12.0626 11.3498V10.7003C12.3523 10.8745 12.676 10.962 12.9999 10.962C13.3242 10.962 13.6483 10.8745 13.938 10.6997V11.3498C13.938 11.6671 14.0116 11.9744 14.1494 12.2514C13.7681 12.3584 13.3768 12.4182 12.9805 12.4267C12.589 12.4354 12.2009 12.3938 11.8212 12.3058C11.9776 12.0141 12.0626 11.6855 12.0626 11.3498Z" fill="#3050B9"/>
</svg>
