<svg width="35" height="30" viewBox="0 0 35 30" fill="none" xmlns="http://www.w3.org/2000/svg">
<path d="M17.5039 12.1395C18.2272 12.1395 18.9209 12.4345 19.4324 12.9596C19.9438 13.4847 20.2312 14.1968 20.2312 14.9395C20.2312 15.6821 19.9438 16.3943 19.4324 16.9194C18.9209 17.4445 18.2272 17.7395 17.5039 17.7395C16.7806 17.7395 16.0869 17.4445 15.5754 16.9194C15.064 16.3943 14.7766 15.6821 14.7766 14.9395C14.7766 14.1968 15.064 13.4847 15.5754 12.9596C16.0869 12.4345 16.7806 12.1395 17.5039 12.1395ZM17.5039 7.93945C22.0494 7.93945 25.9312 10.8421 27.5039 14.9395C25.9312 19.0368 22.0494 21.9395 17.5039 21.9395C12.9585 21.9395 9.07663 19.0368 7.50391 14.9395C9.07663 10.8421 12.9585 7.93945 17.5039 7.93945ZM9.48572 14.9395C10.9857 18.0755 14.0857 20.0728 17.5039 20.0728C20.9221 20.0728 24.0221 18.0755 25.5221 14.9395C24.0221 11.8035 20.9221 9.80612 17.5039 9.80612C14.0857 9.80612 10.9857 11.8035 9.48572 14.9395Z" fill="#010101" fill-opacity="0.5"/>
</svg>
