<svg width="27" height="27" viewBox="0 0 27 27" fill="none" xmlns="http://www.w3.org/2000/svg">
<path fill-rule="evenodd" clip-rule="evenodd" d="M7.16318 7.82107C7.18785 7.48798 7.28654 7.20425 7.45925 6.9822C7.64429 6.77248 7.87868 6.5751 8.17475 6.41473C8.39681 6.29136 8.50783 6.10632 8.50783 5.85959C8.50783 5.68688 8.45849 5.55118 8.3598 5.44016C8.26111 5.32913 8.11307 5.27979 7.92803 5.27979C7.65663 5.27979 7.34822 5.42782 7.0028 5.71156C6.65739 5.99529 6.36132 6.37772 6.11459 6.87117C5.8802 7.36462 5.75684 7.89508 5.75684 8.45022C5.75684 9.06703 5.89254 9.53581 6.16393 9.86889C6.44767 10.202 6.79309 10.3623 7.20018 10.3623C7.58261 10.3623 7.90335 10.239 8.16242 10.0046C8.42148 9.7702 8.54484 9.47413 8.54484 9.11638C8.54484 8.74629 8.42148 8.43788 8.16242 8.19115C7.90335 7.94443 7.60728 7.82107 7.28654 7.82107H7.16318ZM10.9381 7.82107C10.9751 7.47565 11.0614 7.20425 11.2218 6.99453C11.3822 6.78482 11.6166 6.58743 11.925 6.41473C12.147 6.29136 12.2581 6.11865 12.2581 5.85959C12.2581 5.68688 12.2087 5.53885 12.11 5.44016C12.0113 5.32913 11.8756 5.27979 11.6783 5.27979C11.4809 5.27979 11.2465 5.36614 10.9874 5.52651C10.7284 5.69922 10.494 5.92127 10.2719 6.20501C10.0499 6.50108 9.86483 6.83416 9.71679 7.21659C9.58109 7.59901 9.50707 8.01845 9.50707 8.45022C9.50707 9.0547 9.64277 9.52348 9.91417 9.86889C10.1856 10.2143 10.531 10.3747 10.9504 10.3747C11.3328 10.3747 11.6536 10.2637 11.9127 10.0169C12.1717 9.7702 12.2951 9.47413 12.2951 9.11638C12.2951 8.74629 12.1717 8.43788 11.9127 8.19115C11.6536 7.94443 11.3575 7.82107 11.0491 7.82107H10.9381Z" fill="#07BA18"/>
<path fill-rule="evenodd" clip-rule="evenodd" d="M25.7054 22.9702C25.7424 23.0196 25.7794 23.0689 25.8164 23.1182C26.6059 24.1051 25.1996 25.3141 24.4224 24.2655C24.373 24.2162 24.336 24.1668 24.299 24.1175L25.7054 22.9702ZM23.9166 23.624C23.3121 22.8345 22.6953 22.045 22.0908 21.2555H11.0992L5.20242 26.449C5.16541 26.4861 5.1284 26.5107 5.07905 26.5354C4.95569 26.6094 4.83233 26.6341 4.68429 26.6341C4.53626 26.6341 4.41289 26.6094 4.28953 26.5354C4.16617 26.4614 4.07981 26.375 4.00579 26.2517C3.93178 26.1283 3.9071 26.0049 3.9071 25.8569V21.0581C3.66038 20.9717 3.42599 20.8607 3.20393 20.7373C2.7845 20.5029 2.40207 20.1945 2.06899 19.8244C1.74825 19.4667 1.47685 19.0473 1.27947 18.6155C1.08209 18.159 0.983398 17.6656 0.983398 17.1845V4.07098C0.983398 3.79958 1.00807 3.54052 1.06975 3.28146C1.13143 3.0224 1.21779 2.77567 1.32882 2.54128C1.55087 2.0725 1.85928 1.64073 2.22937 1.2583C2.59945 0.888214 3.03123 0.579807 3.50001 0.357753C3.7344 0.246726 3.98112 0.160372 4.24018 0.0986905C4.49925 0.0370089 4.75831 0 5.02971 0H20.4131C20.5611 0 20.6845 0.0370089 20.8078 0.111027C20.8202 0.123363 20.8325 0.123363 20.8449 0.135699C20.8572 0.135699 20.8572 0.148036 20.8695 0.148036C20.9312 0.185045 20.9806 0.222054 21.0422 0.283735L26.7416 6.14348C26.7786 6.19283 26.8156 6.22984 26.8526 6.29152C26.865 6.31619 26.8773 6.34086 26.8896 6.36554C26.9513 6.4889 26.9883 6.59993 26.9883 6.73562V17.1845V17.3078V20.4659C26.9883 20.614 26.9513 20.7373 26.8773 20.8607C26.8033 20.9841 26.7169 21.0704 26.5936 21.1444C26.4702 21.2185 26.3468 21.2555 26.1988 21.2555H24.3484C24.6691 21.6626 24.9899 22.0697 25.3106 22.4768L23.9166 23.624ZM5.07905 19.7628C5.20242 19.8368 5.28877 19.9231 5.36279 20.0465C5.43681 20.1699 5.47381 20.2932 5.47381 20.4413V24.1175L10.285 19.8738C10.322 19.8368 10.359 19.8121 10.4083 19.7874C10.5317 19.7134 10.6551 19.6887 10.8031 19.6887H20.8819C19.2288 17.5176 17.5634 15.3587 15.898 13.2122C15.5773 12.2993 15.2688 11.3864 14.9604 10.4982C15.7006 11.0287 16.4408 11.5591 17.1933 12.0896C19.1671 14.6185 21.1533 17.1598 23.1271 19.6887H25.4216V17.3078V17.1845V7.4758H20.4748C20.3267 7.4758 20.2034 7.43879 20.08 7.36478C19.9566 7.29076 19.8703 7.2044 19.7963 7.08104C19.7223 6.95768 19.6976 6.83432 19.6976 6.68628V1.57905H5.02971C4.88167 1.57905 4.74597 1.59138 4.59794 1.62839C4.4499 1.6654 4.30187 1.71475 4.15383 1.77643C3.85776 1.92446 3.57402 2.12185 3.33963 2.36857C3.09291 2.6153 2.89553 2.8867 2.74749 3.1951C2.68581 3.34314 2.63646 3.49118 2.59945 3.63921C2.56245 3.78725 2.55011 3.92295 2.55011 4.07098V17.1845C2.55011 17.4559 2.61179 17.7273 2.72282 17.9987C2.84618 18.2701 3.01889 18.5415 3.22861 18.7759C3.45066 19.0103 3.69739 19.22 3.98112 19.3803C4.22785 19.5284 4.51158 19.6271 4.79532 19.6641C4.89401 19.6764 4.98036 19.7134 5.07905 19.7628Z" fill="#07BA18"/>
</svg>
