<svg width="22" height="20" viewBox="0 0 22 20" fill="none" xmlns="http://www.w3.org/2000/svg">
<path fill-rule="evenodd" clip-rule="evenodd" d="M10.3637 1.56118C10.6148 1.47961 10.8852 1.47961 11.1363 1.56118C11.2329 1.59259 11.3596 1.66005 11.5792 1.84648C11.8056 2.03861 12.0776 2.30988 12.4824 2.71464L17 7.23223V14.1216C17 14.974 16.9994 15.5683 16.9616 16.0309C16.9245 16.4848 16.8554 16.7455 16.7548 16.9431C16.539 17.3664 16.1948 17.7106 15.7715 17.9263C15.574 18.027 15.3132 18.0961 14.8593 18.1332C14.3967 18.171 13.8025 18.1716 12.95 18.1716H8.55C7.69755 18.1716 7.10331 18.171 6.64068 18.1332C6.1868 18.0961 5.92604 18.027 5.72852 17.9263C5.30516 17.7106 4.96095 17.3664 4.74524 16.9431C4.6446 16.7455 4.57546 16.4848 4.53838 16.0309C4.50058 15.5683 4.5 14.974 4.5 14.1216V7.23223L9.01759 2.71464C9.42236 2.30988 9.69445 2.03861 9.92076 1.84648C10.1404 1.66005 10.2671 1.59259 10.3637 1.56118ZM3.21914 6.39177L0.21967 9.39124C-0.0732233 9.68414 -0.0732233 10.159 0.21967 10.4519C0.512563 10.7448 0.987437 10.7448 1.28033 10.4519L3 8.73223V14.1216L3 14.1537C2.99999 14.9665 2.99999 15.6221 3.04336 16.153C3.08803 16.6997 3.18238 17.1798 3.40873 17.624C3.76825 18.3296 4.34193 18.9033 5.04754 19.2628C5.49175 19.4892 5.9719 19.5835 6.51853 19.6282C7.04944 19.6716 7.70505 19.6716 8.51788 19.6716H8.55H12.95H12.9821C13.795 19.6716 14.4506 19.6716 14.9815 19.6282C15.5281 19.5835 16.0082 19.4892 16.4525 19.2628C17.1581 18.9033 17.7318 18.3296 18.0913 17.624C18.3176 17.1798 18.412 16.6997 18.4566 16.153C18.5 15.6221 18.5 14.9665 18.5 14.1537V14.1216V8.73223L20.2197 10.4519C20.5126 10.7448 20.9874 10.7448 21.2803 10.4519C21.5732 10.159 21.5732 9.68414 21.2803 9.39124L13.5431 1.65398L13.5215 1.63246C13.1439 1.25475 12.8286 0.939483 12.55 0.702975C12.2594 0.456303 11.9598 0.251563 11.5998 0.134595C11.0475 -0.0448649 10.4525 -0.0448649 9.9002 0.134595C9.54021 0.251563 9.24056 0.456302 8.95 0.702974C8.6714 0.939481 8.35615 1.25475 7.97846 1.63245L7.97845 1.63246L7.95693 1.65398L3.2202 6.39071C3.21985 6.39107 3.21949 6.39142 3.21914 6.39177Z" fill="#636F7E"/>
</svg>
