<svg width="20" height="21" viewBox="0 0 20 21" fill="none" xmlns="http://www.w3.org/2000/svg">
<path d="M14.4317 0.752643C15.4467 0.79931 16.1483 0.948477 16.7967 1.20014C17.4114 1.42999 17.9679 1.79247 18.4267 2.26181C18.896 2.72055 19.2585 3.27708 19.4883 3.89181C19.74 4.54098 19.8892 5.24181 19.9358 6.25681C19.9933 7.51514 20 7.95848 20 10.6885C20 13.4185 19.9933 13.8618 19.9358 15.1201C19.8892 16.1351 19.74 16.8368 19.4883 17.486C19.2584 18.1004 18.8959 18.6566 18.4267 19.1151C17.9679 19.5845 17.4114 19.947 16.7967 20.1768C16.1475 20.4285 15.4467 20.5776 14.4317 20.6243C13.1733 20.6818 12.7308 20.6885 10 20.6885C7.26917 20.6885 6.82583 20.6818 5.56833 20.6243C4.55333 20.5776 3.85167 20.4285 3.2025 20.1768C2.58805 19.9469 2.03181 19.5844 1.57333 19.1151C1.10399 18.6564 0.741509 18.0999 0.511667 17.4851C0.26 16.836 0.110833 16.1351 0.0641667 15.1201C0.00666667 13.8635 0 13.4201 0 10.6885C0 7.95764 0.00666667 7.51348 0.0641667 6.25681C0.110833 5.24181 0.26 4.54014 0.511667 3.89181C0.741509 3.27708 1.10399 2.72055 1.57333 2.26181C2.03183 1.79257 2.58807 1.43009 3.2025 1.20014C3.8525 0.948477 4.55333 0.79931 5.56833 0.752643C6.825 0.695143 7.26833 0.688477 10 0.688477C12.7308 0.688477 13.175 0.695143 14.4317 0.752643ZM10 2.91098C7.3 2.91098 6.88667 2.91681 5.66917 2.97264C4.89667 3.00764 4.43333 3.10598 4.0075 3.27181C3.645 3.41348 3.41417 3.56348 3.14417 3.83264C2.87417 4.10264 2.72417 4.33348 2.58333 4.69598C2.41833 5.12098 2.31917 5.58514 2.28417 6.35764C2.22833 7.57514 2.2225 7.98848 2.2225 10.6885C2.2225 13.3885 2.22833 13.8018 2.28417 15.0193C2.31917 15.7918 2.4175 16.2551 2.58333 16.6801C2.725 17.0435 2.875 17.2743 3.14417 17.5443C3.41417 17.8143 3.645 17.9643 4.0075 18.1051C4.4325 18.2701 4.89667 18.3693 5.66917 18.4043C6.8875 18.4601 7.30083 18.466 10 18.466C12.7 18.466 13.1125 18.4601 14.3308 18.4043C15.1033 18.3693 15.5667 18.271 15.9925 18.1051C16.355 17.9635 16.5858 17.8135 16.8558 17.5443C17.1258 17.2743 17.2758 17.0435 17.4167 16.681C17.5817 16.256 17.6808 15.7918 17.7158 15.0193C17.7717 13.801 17.7775 13.3876 17.7775 10.6885C17.7775 7.98931 17.7717 7.57598 17.7158 6.35764C17.6808 5.58514 17.5825 5.12181 17.4167 4.69681C17.2988 4.36938 17.1069 4.07362 16.8558 3.83264C16.6149 3.58157 16.3191 3.38962 15.9917 3.27181C15.5667 3.10681 15.1025 3.00764 14.33 2.97264C13.1125 2.91681 12.6992 2.91098 9.99917 2.91098H10ZM10 15.8735C8.62485 15.8735 7.30603 15.3272 6.33365 14.3548C5.36127 13.3824 4.815 12.0636 4.815 10.6885C4.815 9.31333 5.36127 7.9945 6.33365 7.02213C7.30603 6.04975 8.62485 5.50348 10 5.50348C11.3751 5.50348 12.694 6.04975 13.6663 7.02213C14.6387 7.9945 15.185 9.31333 15.185 10.6885C15.185 12.0636 14.6387 13.3824 13.6663 14.3548C12.694 15.3272 11.3751 15.8735 10 15.8735ZM10 13.6518C10.7859 13.6518 11.5397 13.3396 12.0954 12.7839C12.6511 12.2281 12.9633 11.4744 12.9633 10.6885C12.9633 9.90255 12.6511 9.14882 12.0954 8.59308C11.5397 8.03735 10.7859 7.72514 10 7.72514C9.21408 7.72514 8.46034 8.03735 7.90461 8.59308C7.34887 9.14882 7.03667 9.90255 7.03667 10.6885C7.03667 11.4744 7.34887 12.2281 7.90461 12.7839C8.46034 13.3396 9.21408 13.6518 10 13.6518ZM15.185 6.61431C14.8903 6.61431 14.6076 6.49723 14.3992 6.28883C14.1908 6.08043 14.0737 5.79778 14.0737 5.50306C14.0737 5.20834 14.1908 4.92569 14.3992 4.71729C14.6076 4.50889 14.8903 4.39181 15.185 4.39181C15.4797 4.39181 15.7624 4.50889 15.9708 4.71729C16.1792 4.92569 16.2962 5.20834 16.2962 5.50306C16.2962 5.79778 16.1792 6.08043 15.9708 6.28883C15.7624 6.49723 15.4797 6.61431 15.185 6.61431Z" fill="white"/>
</svg>
