<svg width="280" height="280" viewBox="0 0 280 280" fill="none" xmlns="http://www.w3.org/2000/svg">
<path d="M27.02 117.34C55.6042 117.079 84.0756 117.409 112.691 116.841C112.849 116.813 113.012 116.819 113.168 116.859C113.324 116.898 113.47 116.97 113.597 117.069C113.724 117.168 113.828 117.293 113.904 117.435C113.979 117.577 114.024 117.734 114.035 117.895C114.046 118.055 114.023 118.216 113.968 118.368C113.913 118.519 113.827 118.657 113.715 118.773C113.603 118.889 113.468 118.98 113.319 119.04C113.17 119.1 113.009 119.129 112.848 119.123C84.5553 119.683 55.453 120.328 27.1749 119.579C25.5453 119.536 25.3437 117.356 27.02 117.34ZM91.2641 74.0142C96.0306 95.2428 66.8108 107.095 53.5126 93.6664C47.4133 87.5027 46.4566 77.4675 49.7746 69.7087C54.7297 58.1214 67.5229 54.795 78.6258 59.554C84.6776 62.1478 89.7297 67.1775 91.2641 74.0142ZM88.6181 71.6248C87.7162 69.3032 86.3348 67.1978 84.5642 65.4461C82.7935 63.6944 80.6734 62.3358 78.3421 61.459C65.8784 57.0938 53.8104 59.5923 50.203 73.526C48.2981 80.8816 50.3496 89.7903 56.8101 94.3095C71.6538 104.693 96.2826 90.2756 88.6181 71.6258V71.6248ZM28.0662 53.4034C28.0662 52.695 26.9154 52.7118 26.8529 53.394C25.3008 69.719 26.0689 86.8223 26.1268 103.234C26.1361 105.694 26.9957 105.874 28.5357 105.975C53.0021 107.586 86.5965 106.684 111.014 105.602C111.896 105.563 111.922 104.064 111.014 104.048C83.7349 103.537 55.0377 105.412 28.195 103.802C28.615 87.3422 28.153 69.9635 28.0662 53.4034ZM113.454 104.329C113.547 105.056 114.988 105.154 114.974 104.34C114.654 87.1956 114.802 69.9234 114.358 52.8322C114.297 50.482 114.257 50.6855 111.707 50.5819C85.5736 49.5646 56.4218 50.0667 30.393 51.5656C30.195 51.5748 30.0087 51.6622 29.8752 51.8088C29.7416 51.9553 29.6717 52.1488 29.6809 52.3468C29.6901 52.5449 29.7775 52.7311 29.924 52.8647C30.0705 52.9982 30.2641 53.0681 30.4621 53.059C57.7621 52.9656 85.3552 51.8624 112.623 52.7454C111.627 66.3263 111.76 91.0139 113.454 104.329ZM78.9152 78.0564C75.7073 76.1748 71.2012 73.2302 67.6069 71.2655C65.2073 69.9514 65.0206 71.7499 66.738 72.938C69.159 74.6124 73.654 76.76 76.7564 78.9282C73.1966 81.1224 69.7844 83.4352 66.1612 85.622C65.6422 80.8471 65.4024 76.1468 64.7182 71.3588C64.596 70.5002 63.4032 70.7512 63.4256 71.566C63.5702 76.8683 64.2973 82.0772 64.4784 87.3086C64.5009 87.4499 64.5556 87.5843 64.6383 87.7011C64.721 87.8179 64.8295 87.9142 64.9554 87.9824C65.0813 88.0506 65.2211 88.089 65.3642 88.0945C65.5072 88.1 65.6496 88.0725 65.7804 88.0142C68.8996 86.4023 76.3728 81.969 79.1392 79.5628C79.2506 79.4616 79.3353 79.3344 79.3859 79.1926C79.4365 79.0508 79.4513 78.8988 79.4292 78.7499C79.4071 78.6009 79.3486 78.4598 79.2589 78.3388C79.1693 78.2179 79.0512 78.1209 78.9152 78.0564ZM167.488 64.8498C171.394 64.5987 171.259 62.074 167.235 62.355C154.926 63.2146 142.328 62.9803 129.995 62.6639C124.568 62.5248 124.029 64.7788 129.6 64.9898C141.639 65.4471 155.5 65.6188 167.485 64.8498H167.488ZM179.57 107.914C179.783 103.856 179.758 99.7888 179.495 95.7338C179.438 95.1178 178.313 95.0328 178.208 95.66C177.68 98.8147 178.348 104.555 178.219 107.98C178.187 108.719 179.519 108.655 179.566 107.914H179.57ZM28.5842 22.9198C44.1812 22.874 160.389 22.1236 166.536 22.3728C180.059 22.9216 180.859 38.7668 179.238 39.0198C177.51 39.2895 16.4248 38.2414 14.7252 38.1051C13.5436 38.0099 12.9873 22.9655 28.5842 22.9198ZM164.291 31.5064C164.287 31.9313 164.373 32.3522 164.546 32.7406C164.718 33.129 164.971 33.476 165.289 33.758C165.607 34.0401 165.982 34.2506 166.388 34.3755C166.794 34.5004 167.222 34.5367 167.643 34.4819C168.079 34.4151 168.495 34.2532 168.861 34.0077C169.228 33.7621 169.536 33.439 169.763 33.0611C169.99 32.6832 170.132 32.26 170.177 31.8213C170.222 31.3827 170.171 30.9394 170.025 30.523C169.88 30.1066 169.645 29.7273 169.337 29.4119C169.029 29.0966 168.655 28.853 168.242 28.6984C167.829 28.5438 167.387 28.482 166.947 28.5174C166.508 28.5529 166.081 28.6846 165.698 28.9034C165.261 29.1796 164.901 29.5638 164.655 30.019C164.408 30.4742 164.283 30.9851 164.291 31.5027V31.5064ZM154.187 33.4879C154.64 34.023 155.264 34.385 155.954 34.5128C156.643 34.6405 157.356 34.5261 157.97 34.1888C158.535 33.8047 158.96 33.2487 159.183 32.6036C159.407 31.9584 159.416 31.2585 159.21 30.6076C158.969 29.961 158.517 29.4144 157.928 29.056C157.338 28.6975 156.645 28.5481 155.96 28.6318C155.44 28.7158 154.952 28.9369 154.546 29.2723C154.14 29.6078 153.831 30.0454 153.65 30.5401C153.469 31.0348 153.424 31.5687 153.518 32.0868C153.612 32.605 153.843 33.0886 154.187 33.4879ZM143.058 33.6746C143.555 34.0934 144.169 34.349 144.817 34.4064C145.465 34.4639 146.115 34.3204 146.678 33.9956C148.661 32.8999 148.615 29.595 146.35 28.8166C145.691 28.6221 144.988 28.6341 144.336 28.851C143.684 29.0679 143.113 29.4793 142.702 30.0299C142.324 30.5818 142.152 31.2492 142.216 31.9152C142.281 32.5811 142.578 33.203 143.056 33.6718L143.058 33.6746ZM178.188 42.6094C178.448 55.5622 177.299 68.5215 177.988 81.5667C178.029 82.3311 179.316 82.2779 179.304 81.5368C179.095 68.6914 180.45 55.3951 179.529 42.5795C179.472 41.8067 178.173 41.8478 178.186 42.6066L178.188 42.6094ZM168.84 51.8223C154.321 52.5008 140.093 51.5358 125.635 51.5339C125.066 51.5339 124.96 52.5606 125.514 52.8023C129.958 54.7212 162.322 54.5028 168.902 54.0072C169.183 53.9874 169.446 53.8597 169.635 53.6506C169.825 53.4415 169.926 53.1673 169.918 52.8852C169.91 52.6032 169.794 52.3351 169.593 52.1371C169.392 51.939 169.122 51.8262 168.84 51.8223ZM24.9834 138.041C35.3369 138.095 46.1934 139.046 54.4394 138.444C55.1861 138.389 55.2897 137.122 54.5048 137.099C44.743 136.819 35.3976 136.192 26.1613 135.988C19.908 135.848 16.4294 133.363 15.791 126.836C14.7149 115.817 15.1377 101.823 15.0761 90.593C15.0052 78.2823 16.1578 44.3155 15.8666 40.8724C15.8602 40.6911 15.7879 40.5183 15.6633 40.3864C15.5387 40.2544 15.3703 40.1724 15.1896 40.1556C15.0089 40.1388 14.8283 40.1884 14.6815 40.295C14.5347 40.4017 14.4318 40.5582 14.392 40.7352C13.9822 42.7736 13.3494 67.6535 13.1292 86.9044C12.9892 99.1012 12.4488 115.95 13.7274 127.691C14.4032 133.918 18.592 138.01 24.9834 138.041ZM137.372 136.027C119.655 137.119 99.2758 136.4 80.9984 136.867C80.2134 136.886 80.2106 138.23 81.0077 138.252C99.1069 138.734 119.326 137.918 137.381 137.937C138.467 137.937 138.468 135.962 137.372 136.029V136.027ZM128.247 75.1734C126.155 75.669 126.43 77.0232 128.542 77.0242C131.887 77.0242 135.5 76.6508 138.966 76.6088C141.182 76.5827 142.13 74.8355 138.52 74.5555C135.083 74.3941 131.64 74.6009 128.247 75.1724V75.1734ZM185.032 164.333C183.46 159.68 181.07 155.345 177.974 151.532C177.531 150.943 178.275 150.039 178.887 150.548C182.776 154.101 185.48 158.762 186.634 163.901C191.247 162.662 196.1 162.625 200.732 163.791C205.363 164.957 209.62 167.289 213.096 170.565C214.01 146.872 194.16 130.772 174.402 129.311C171.488 136.079 158.677 138.732 156.286 131.718C146.315 133.7 131.947 140.865 126.792 149.426C133.318 149.384 137.854 149.373 141.337 150.014C144.659 150.625 146.896 152.984 147.068 155.807C147.313 161.225 147.965 166.616 149.02 171.936C151.551 165.382 157.527 163.736 162.864 163.613C167.488 163.506 178.696 165.842 185.032 164.332V164.333ZM181.238 116.821C189.902 115.007 198.798 114.566 207.598 115.514C216.197 116.416 221.64 117.556 223.671 126.994C226.701 141.079 223.546 163.735 218.693 177.294C214.516 188.961 206.864 187.859 196.654 188.635C195.87 188.695 195.66 190.047 196.522 190.075C206.236 190.392 214.442 190.007 218.896 182.102C225.763 169.911 228.252 142.669 226.238 128.715C224.918 119.578 221.038 115.182 211.719 113.968C202.165 112.723 190.027 112.453 180.816 115.43C180.641 115.493 180.496 115.621 180.412 115.788C180.328 115.954 180.312 116.147 180.366 116.326C180.42 116.504 180.541 116.655 180.703 116.747C180.866 116.839 181.057 116.865 181.238 116.82V116.821ZM225.097 119.28C231.344 121.539 238.104 123.964 242.643 129.062C252.869 140.542 247.403 159.396 244.853 172.807C242.023 187.702 239.322 202.621 236.504 217.513C235.623 222.171 237.386 223.619 238.214 219.456C241.17 204.593 243.946 189.659 246.786 174.771C249.482 160.64 255.016 141.851 245.632 129.131C240.848 122.649 233.002 120.137 225.577 118.047C224.782 117.829 224.28 118.984 225.097 119.281V119.28ZM188.977 251.189C188.627 252.639 190.8 253.049 191.161 251.517C194.386 237.818 198.767 221.528 200.328 207.944C201.564 197.179 200.682 190.243 188.508 189.09C178.736 188.157 170.65 192.088 168.871 202.362C166.546 215.791 167.937 237.49 168.417 251.824C168.415 252.003 168.485 252.177 168.611 252.305C168.736 252.434 168.908 252.508 169.088 252.51C169.268 252.511 169.442 252.442 169.57 252.316C169.699 252.19 169.772 252.018 169.774 251.838C170.189 237.501 169.535 222.749 170.393 208.548C170.98 198.82 173.312 191.617 184.568 191.048C196.938 190.423 199.408 195.14 198.324 206.664C196.946 221.282 191.256 241.768 188.979 251.188L188.977 251.189ZM248.956 229.768C250.285 227.215 254.726 222.675 257.308 222.659C259.454 222.648 258.076 226.869 258.757 229.249C264.303 229.736 265.326 229.671 269.044 233.298C269.52 233.764 270.092 233.518 269.685 232.84C268.839 231.381 267.645 230.153 266.21 229.266C268.1 226.422 271.09 224.764 271.985 224.887C273.677 225.12 271.561 230.833 272.648 235.362C273.383 238.423 274.701 241.976 273.429 245.565C272.441 248.355 270.85 250.896 266.042 252.415C261.627 253.815 253.271 252.748 249.506 250.661C255.004 247.325 253.006 239.126 244.576 241.821C233.147 245.474 227.391 246.301 215.363 244.279C214.514 244.137 214.316 245.076 215.199 245.244C224.844 247.291 234.86 246.744 244.225 243.658C248.788 242.218 252.004 245.077 249.818 248.113C247.601 251.193 241.672 252.327 238.076 252.873C227.212 254.525 215.707 253.31 210.699 252.707C201.387 251.587 206.15 227.851 230.404 224.614C237.352 223.686 244.488 225.628 248.389 228.206C246.525 231.34 245.372 234.845 245.012 238.473C244.962 239.178 245.734 239.013 245.891 238.322C246.539 235.349 247.57 232.474 248.959 229.767L248.956 229.768ZM224.621 227.5C223.208 228.247 222.216 230.099 221.727 231.565C221.185 233.144 221.109 234.846 221.508 236.467C221.695 237.223 222.459 237.297 222.458 236.501C222.433 234.997 222.749 233.508 223.383 232.144C223.617 231.643 224.884 229.661 225.388 228.836C225.917 227.977 225.471 227.055 224.623 227.499L224.621 227.5ZM231.828 225.82C229.826 226.902 228.654 229.296 227.948 231.367C227.241 233.57 227.176 235.928 227.761 238.167C227.926 238.887 228.7 238.834 228.747 238.12C228.917 235.507 229.355 231.809 231.251 229.387C231.839 228.63 232.376 227.835 232.857 227.006C233.402 226.073 232.537 225.433 231.831 225.814L231.828 225.82ZM237.948 227.268C236.761 228.368 235.793 229.682 235.094 231.141C234.176 233.031 233.872 235.162 234.225 237.234C234.367 237.97 235.158 238.097 235.242 237.289C235.474 235.27 236.177 233.335 237.295 231.638C237.925 230.675 238.652 229.779 239.463 228.962C241.547 226.842 239.888 225.555 237.951 227.268L237.948 227.268ZM266.881 240.825C267.247 240.61 267.68 240.537 268.096 240.62C268.513 240.703 268.885 240.936 269.141 241.275C269.72 242.073 270.337 241.623 270.008 240.637C269.86 240.297 269.632 239.999 269.343 239.769C269.054 239.538 268.713 239.382 268.349 239.314C267.986 239.245 267.611 239.267 267.258 239.377C266.905 239.487 266.584 239.682 266.324 239.944C266.239 240.03 266.187 240.142 266.174 240.262C266.161 240.382 266.19 240.503 266.255 240.604C266.32 240.706 266.417 240.783 266.531 240.822C266.645 240.861 266.769 240.86 266.883 240.819L266.881 240.825ZM261.106 242.614C261.2 243.306 262.429 244.714 263.206 244.677C264.121 244.633 265.404 243.676 265.314 242.761C265.224 241.846 260.973 241.595 261.108 242.609L261.106 242.614ZM256.546 240.483C256.871 240.139 257.303 239.917 257.772 239.855C258.24 239.792 258.716 239.893 259.119 240.139C259.88 240.706 260.561 240 259.912 239.345C259.623 239.045 259.268 238.818 258.875 238.681C258.482 238.544 258.062 238.502 257.65 238.557C257.238 238.613 256.844 238.765 256.502 239.001C256.159 239.237 255.876 239.55 255.677 239.915C255.274 240.57 256.107 240.904 256.548 240.477L256.546 240.483ZM94.0072 170.342C94.3198 167.735 94.4738 166.453 91.6962 166.318C83.7106 165.931 78.0341 167.947 73.1332 171.761C67.7758 175.93 63.7392 182.607 63.3677 189.483C63.3379 189.655 63.3775 189.832 63.4778 189.974C63.5781 190.116 63.7308 190.213 63.9025 190.243C64.0742 190.273 64.2507 190.233 64.3931 190.133C64.5356 190.033 64.6324 189.88 64.6622 189.708C65.9213 183.25 68.8874 177.344 74.1738 173.241C79.7878 168.882 85.7873 167.502 92.7042 168.009C92.2243 174.928 89.382 181.472 84.6533 186.546C79.0449 192.527 74.3866 193.858 66.9349 195.545C66.7838 195.588 66.6529 195.683 66.5663 195.814C66.4796 195.945 66.443 196.102 66.463 196.258C66.4831 196.414 66.5585 196.557 66.6755 196.662C66.7924 196.766 66.9432 196.825 67.1001 196.828C73.5802 196.747 81.4137 192.338 85.8134 187.722C90.2924 182.926 93.1576 176.849 94.0072 170.342ZM150.117 251.871C147.934 247.083 142.509 240.942 136.601 242.135C132.914 242.881 128.845 246.824 127.041 250.025C126.093 251.705 126.52 253.639 128.649 253.907C133.582 254.351 138.539 254.479 143.489 254.291C148.304 254.234 155.547 253.954 160.12 252.746C160.975 252.521 160.551 251.355 159.802 251.346C156.587 251.279 153.347 251.64 150.117 251.871ZM106.91 253.89C112.472 254.204 120.057 254.181 125.327 252.882C126.145 252.681 125.78 251.519 125.035 251.519C124.27 251.519 123.505 251.545 122.742 251.572C121.544 248.643 120.085 245.663 117.193 244.082C112.543 241.541 107.633 245.209 104.438 248.44C100.308 252.618 102.649 253.649 106.91 253.89ZM47.1389 188.119C47.3251 188.11 47.5007 188.03 47.6285 187.894C47.7564 187.758 47.8266 187.578 47.8243 187.392C47.822 187.206 47.7474 187.027 47.6162 186.895C47.485 186.763 47.3075 186.686 47.1212 186.682C39.605 186.646 32.3493 185.446 25.6629 181.851C15.8508 176.574 9.98664 168.654 6.34664 158.377C12.3769 157.631 22.0864 157.164 30.5713 159.581C43.4149 163.235 48.6882 171.987 51.1112 184.279C51.2596 185.033 52.5494 184.945 52.4813 184.147C50.3468 159.45 28.1773 154.342 6.99997 156.613C4.66011 156.864 4.17757 156.996 5.10717 159.452C7.34717 165.372 10.4692 171.311 14.7756 175.804C22.6333 184.003 35.6729 189.587 47.1389 188.119ZM274.7 255.493C256.48 255.027 255.619 255.12 237.397 255.139C219.175 255.157 200.939 255.268 182.711 255.293C146.441 255.34 110.171 255.444 73.8994 255.605C53.5602 255.673 32.8029 255.36 12.516 256.097C11.7992 256.123 11.7852 257.34 12.5057 257.363C30.7141 257.923 48.9757 257.573 67.1888 257.535C85.4199 257.496 103.648 257.454 121.874 257.41C158.144 257.306 194.415 257.13 230.685 257.109C251.137 257.097 254.244 257.627 274.687 256.996C275.54 256.97 275.554 255.516 274.7 255.493ZM72.0384 252.227C73.6876 243.431 75.9332 231.034 76.5184 222.278C78.6081 222.117 78.8517 221.892 79.2754 219.701C79.6754 217.903 79.96 216.082 80.1276 214.248C80.289 211.635 80.667 210.496 77.6813 210.431C65.3828 210.162 50.4121 210.046 38.2573 210.869C38.0894 210.878 37.9317 210.952 37.8178 211.076C37.704 211.2 37.643 211.363 37.648 211.531C37.653 211.699 37.7236 211.859 37.8446 211.975C37.9656 212.092 38.1274 212.157 38.2956 212.156C51.5424 212.996 65.6646 211.344 78.4681 212.474C78.4493 215.155 78.1363 217.825 77.5348 220.437C64.3822 221.348 51.8924 221.219 38.7482 221.057C37.878 218.325 37.2227 215.528 36.7882 212.693C36.6613 211.947 35.3957 211.969 35.4153 212.767C35.5218 215.654 36.0585 218.508 37.0076 221.236C37.4845 222.665 38.5317 222.892 40.0568 222.882C51.8718 222.802 63.1166 223.137 74.984 222.38C73.7585 233.926 71.876 241.52 70.6253 250.33C70.1913 253.439 71.6949 254.064 72.0384 252.231V252.227ZM103.282 192.615C103.975 192.631 104.256 191.512 103.513 191.36C99.0462 190.45 94.0053 190.136 90.2356 193.194C85.5278 197.014 87.303 204.854 88.1402 210.192C89.7157 220.248 94.9312 241.972 98.9062 252.386C99.2357 253.25 100.644 252.689 100.4 251.839C97.2421 240.801 92.5866 224.945 90.1124 210.001C89.5038 206.336 88.1682 200.092 89.8221 196.726C92.2404 191.809 98.7681 192.519 103.282 192.619V192.615ZM40.0241 225.448C40.4152 231.104 43.2189 247.019 45.2946 251.93C45.3762 252.086 45.5097 252.208 45.672 252.276C45.8343 252.344 46.0152 252.353 46.1835 252.302C46.3518 252.251 46.497 252.143 46.5939 251.996C46.6908 251.849 46.7334 251.673 46.7142 251.498C44.5676 242.789 43.0677 236.284 41.3382 225.223C41.2085 224.391 39.9672 224.635 40.0241 225.448ZM56.8614 171.162C56.9544 171.298 57.0955 171.394 57.2563 171.431C57.4171 171.467 57.5858 171.441 57.7285 171.359C57.8712 171.276 57.9773 171.143 58.0256 170.985C58.0739 170.827 58.0608 170.657 57.9889 170.509C54.4453 164.187 53.2929 156.802 54.7418 149.702C55.8521 144.692 58.2876 140.071 61.7939 136.324C65.3002 132.577 69.7485 129.84 74.6741 128.4C76.438 134.74 76.8944 141.373 76.0153 147.896C74.2952 159.145 69.832 165.12 62.7564 173.283C62.2318 173.888 63.0802 174.823 63.727 174.323C68.2948 170.801 72.4574 164.174 74.6713 158.872C78.5465 149.594 79.4724 137.948 76.1842 128.326C75.5673 126.521 75.3797 126.386 73.6026 126.943C67.2964 128.942 61.8025 132.921 57.9357 138.288C54.5283 143.048 52.6077 148.711 52.4165 154.562C52.2253 160.413 53.772 166.19 56.8614 171.162ZM57.1349 208.622C57.1508 209.45 58.5638 209.462 58.5937 208.628C58.6198 207.897 58.6485 207.167 58.6796 206.436C65.2222 192.542 71.7136 184.962 83.5996 175.394C84.1596 174.942 83.4437 173.881 82.7894 174.209C73.807 178.718 63.0102 193.01 58.8709 202.32C59.8229 181.886 61.4992 167.194 66.6549 146.73C66.8416 145.984 65.5834 145.633 65.338 146.379C60.4986 161.066 58.0113 180.881 57.2693 196.355C51.7048 183.761 40.3461 173.684 27.8077 168.381C27.0172 168.047 26.5944 169.274 27.355 169.623C40.9481 175.823 50.918 186.964 57.1284 200.366C57.0714 203.115 57.0817 205.861 57.1349 208.622Z" fill="#F97D7D"/>
<path fill-rule="evenodd" clip-rule="evenodd" d="M158.906 173.013C157.692 174.593 156.681 174.771 155.902 177.022C155.315 178.778 155.392 180.688 156.118 182.391C156.186 182.543 156.193 182.716 156.137 182.873C156.08 183.03 155.964 183.16 155.814 183.233C155.664 183.307 155.492 183.319 155.333 183.268C155.174 183.217 155.041 183.106 154.962 182.958C154.401 181.993 154.046 180.921 153.92 179.811C153.795 178.702 153.902 177.578 154.234 176.512C154.753 174.843 156.388 172.326 158.202 171.948C158.335 171.924 158.473 171.94 158.598 171.994C158.722 172.048 158.828 172.136 158.903 172.25C158.978 172.363 159.018 172.496 159.018 172.631C159.019 172.767 158.98 172.9 158.906 173.013ZM163.088 176.461C163.163 176.369 163.212 176.259 163.229 176.142C163.247 176.025 163.234 175.905 163.19 175.795C163.146 175.685 163.074 175.589 162.981 175.516C162.887 175.443 162.776 175.397 162.658 175.381C160.756 175.312 159.167 177.918 158.88 179.566C158.701 180.579 158.822 181.622 159.227 182.567C159.633 183.512 160.305 184.318 161.162 184.886C161.299 184.994 161.472 185.044 161.645 185.024C161.73 185.014 161.813 184.988 161.888 184.946C161.963 184.904 162.03 184.848 162.083 184.78C162.137 184.713 162.176 184.636 162.2 184.553C162.224 184.47 162.231 184.384 162.221 184.298C162.211 184.213 162.184 184.13 162.143 184.055C162.101 183.979 162.045 183.913 161.977 183.86C161.431 183.347 161.016 182.712 160.765 182.006C160.515 181.3 160.437 180.545 160.538 179.802C160.929 177.563 162.476 177.062 163.088 176.461ZM210.86 170.193C210.715 169.335 209.384 169.433 209.389 170.254C209.425 175.885 207.522 181.744 197.744 183.681C186.834 185.844 176.071 183.239 166.758 177.405C166.624 177.313 166.461 177.277 166.301 177.305C166.142 177.332 166 177.421 165.905 177.552C165.81 177.683 165.77 177.846 165.794 178.006C165.817 178.166 165.902 178.31 166.031 178.408C174.884 185.233 187.149 187.589 198.063 185.549C206.215 184.025 212.41 179.423 210.86 170.193ZM169.549 186.848C168.403 186.956 152.291 187.428 151.193 186.879C150.094 186.33 145.726 172.319 144.668 158.762C144.363 154.86 143.753 153.061 138.997 152.36C135.143 151.791 104.786 152.08 102.088 152.36C99.7677 152.604 98.0056 153.514 98.1978 158.157C98.6542 169.19 104.479 189.922 107.62 191.604C111.035 193.434 165.365 192.964 169.412 192.151C172.751 191.481 172.141 186.605 169.549 186.848ZM126.28 171.934C125.685 169.371 123.809 167.827 121.569 167.911C119.054 168.004 118.596 170.975 119.099 173.079C119.609 175.211 121.234 177.102 123.579 177.013C125.961 176.921 126.875 174.496 126.28 171.934ZM129.962 231.685C129.762 230.938 128.612 231.232 128.665 231.965C128.792 233.745 130.002 239.898 130.554 242.773C130.666 243.351 131.661 243.047 131.758 242.516C131.988 241.267 130.417 233.369 129.963 231.685H129.962ZM138.05 231.532C137.677 230.945 136.65 231.354 136.907 232.049C138.057 235.192 139.169 237.555 139.876 241.083C140.02 241.805 141.183 241.624 141.155 240.867C140.799 237.569 139.74 234.386 138.051 231.532H138.05ZM154.823 240.76C153.812 237.847 153.277 234.79 153.237 231.707C153.222 231.556 153.154 231.414 153.046 231.308C152.937 231.202 152.794 231.138 152.642 231.127C152.491 231.117 152.34 231.16 152.217 231.25C152.095 231.34 152.008 231.471 151.973 231.618C151.602 234.492 151.875 237.412 152.772 240.167C153.657 243.006 155.641 245.411 155.172 248.436C155.143 248.602 155.174 248.773 155.259 248.919C155.344 249.065 155.478 249.175 155.637 249.231C155.796 249.287 155.97 249.285 156.128 249.225C156.285 249.165 156.416 249.051 156.498 248.903C157.982 246.284 155.728 243.176 154.824 240.76H154.823ZM116.515 231.921C116.439 231.787 116.316 231.686 116.171 231.636C116.026 231.585 115.867 231.588 115.724 231.645C115.581 231.701 115.463 231.808 115.392 231.944C115.32 232.08 115.301 232.238 115.336 232.387C115.87 234.902 118.129 239.726 116.615 241.99C116.549 242.105 116.517 242.236 116.524 242.368C116.531 242.5 116.576 242.627 116.654 242.734C116.732 242.841 116.84 242.922 116.963 242.969C117.087 243.015 117.222 243.025 117.351 242.996C120.455 241.99 117.76 233.814 116.516 231.921H116.515ZM130.082 218.842C128.35 212.036 126.349 200.554 132.011 195.135C123.164 195.004 115.79 194.837 113.963 194.835C110.608 194.835 106.51 195.631 105.484 200.418C104.227 206.286 108.658 219.598 112.986 229.294C116.035 229.538 126.459 229.706 130.235 229.233C129.958 225.776 129.907 222.305 130.083 218.842H130.082ZM135.276 195.178C125.82 201.323 132.632 221.539 135.468 229.6C141.598 229.945 147.743 229.923 153.87 229.535C153.174 226.548 153.052 218.436 154.393 216.729C155.734 215.022 159.764 215.185 165.78 215.265C165.823 208.313 165.492 197.851 169.7 194.558C165.953 195.408 149.437 195.365 135.277 195.178H135.276ZM189.644 164.192C180.673 167.678 175.975 166.482 166.89 166.058C160.643 165.767 152.036 167.412 150.33 174.596C150.303 174.754 150.334 174.915 150.418 175.051C150.502 175.187 150.633 175.287 150.786 175.333C150.939 175.379 151.103 175.368 151.248 175.301C151.393 175.234 151.508 175.116 151.572 174.97C154.415 167.558 163.097 167.401 169.772 168.003C176.448 168.605 184.303 169.151 190.26 165.376C190.402 165.287 190.505 165.147 190.549 164.985C190.593 164.823 190.574 164.651 190.497 164.502C190.419 164.353 190.289 164.239 190.131 164.182C189.973 164.125 189.8 164.129 189.645 164.194L189.644 164.192ZM187.287 130.724C180.311 125.005 178.327 112.415 175.558 106.444C170.06 94.5677 158.259 90.8633 146.054 93.6054C136.541 95.7428 136.672 105.925 150.681 104.752C158.155 104.126 161.716 102.247 161.742 102.232C162.582 105.509 166.24 110.522 166.671 109.595C167.727 107.324 169.955 108.283 170.318 110.373C170.845 113.404 169.19 114.931 167.471 114.864C166.857 114.841 169.911 125.479 170.673 127.464C170.872 127.984 171.536 127.896 172.015 127.911C175.869 128.027 182.484 128.633 187.287 130.729V130.724ZM185.335 89.9374C177.702 83.9548 164.255 77.2712 154.524 76.7028C153.887 76.6237 153.241 76.7072 152.646 76.9454C143.779 79.3908 131.186 85.5741 124.143 91.4326C123.71 91.7929 124.049 92.4173 124.497 92.5526C129.364 94.0189 134.023 95.1053 138.492 96.9757C139.345 97.3322 139.705 95.9733 138.89 95.6233C134.774 93.9078 130.511 92.5695 126.153 91.6249C134.07 86.374 144.716 79.9209 154.004 77.9917C163.073 78.5582 176.06 84.778 183.329 90.2697C178.018 91.3908 172.786 92.8561 167.666 94.6564C167.513 94.712 167.388 94.8245 167.316 94.9704C167.245 95.1162 167.232 95.2842 167.282 95.4389C167.331 95.5937 167.439 95.7233 167.582 95.8007C167.725 95.878 167.892 95.897 168.049 95.8538C174.064 94.2513 178.949 92.5498 185.061 91.3412C185.2 91.2965 185.324 91.2155 185.421 91.1066C185.517 90.9976 185.583 90.8648 185.611 90.7218C185.639 90.5789 185.628 90.4311 185.579 90.2938C185.531 90.1565 185.446 90.0347 185.335 89.9412V89.9374ZM123.391 114.727C124.523 117.208 125.115 119.903 125.125 122.63C125.049 123.33 124.048 123.299 123.834 122.714C123.495 121.793 123.367 120.62 123.064 119.622C122.953 121.406 122.995 123.185 122.897 124.964C122.898 125.13 122.835 125.291 122.721 125.413C122.607 125.536 122.451 125.609 122.284 125.62C122.118 125.63 121.954 125.577 121.825 125.47C121.697 125.363 121.615 125.211 121.595 125.046C121.384 123.29 121.29 121.523 121.315 119.755C120.808 120.98 120.418 122.251 120.152 123.55C120.112 123.702 120.016 123.833 119.883 123.916C119.749 123.999 119.589 124.027 119.435 123.995C119.281 123.963 119.146 123.873 119.056 123.744C118.967 123.614 118.931 123.456 118.956 123.3C119.163 121.66 119.964 117.348 120.804 115.818C121.204 115.087 122.629 113.494 123.395 114.727H123.391ZM123.55 94.0068C123.601 93.8681 123.7 93.7521 123.829 93.6793C123.958 93.6065 124.108 93.5817 124.254 93.6092C124.399 93.6367 124.53 93.7148 124.623 93.8296C124.716 93.9444 124.766 94.0885 124.763 94.2364C123.83 100.111 123.391 106.053 123.45 112C123.45 112.876 122.15 112.766 122.117 111.923C121.924 107.07 122.418 98.6865 123.551 94.0124L123.55 94.0068ZM147.958 87.1113C147.833 86.5317 146.829 86.4085 146.754 87.0488C146.641 88.011 146.567 91.1554 146.587 92.0822C146.583 92.2605 146.649 92.4332 146.77 92.5638C146.892 92.6943 147.059 92.7727 147.237 92.7822C147.415 92.7918 147.59 92.7318 147.725 92.615C147.86 92.4982 147.944 92.3336 147.959 92.156C148.073 90.4763 148.073 88.7909 147.959 87.1113H147.958ZM161.943 86.2293C158.416 84.288 152.943 84.0826 149.241 85.1224C149.16 85.1425 149.084 85.179 149.018 85.2296C148.952 85.2802 148.897 85.3438 148.856 85.4165C148.815 85.4892 148.79 85.5694 148.782 85.6523C148.773 85.7352 148.782 85.8189 148.807 85.8983C148.832 85.9778 148.873 86.0512 148.927 86.1142C148.982 86.1772 149.049 86.2283 149.124 86.2645C149.199 86.3006 149.28 86.3211 149.364 86.3245C149.447 86.3279 149.53 86.3142 149.608 86.2844C153.662 85.5149 157.855 86.0034 161.624 87.6844C161.416 89.3342 161.393 91.0022 161.555 92.6572C161.561 92.8359 161.636 93.0052 161.767 93.1279C161.897 93.2506 162.07 93.3166 162.249 93.3114C162.427 93.3062 162.597 93.2303 162.72 93.1002C162.842 92.9702 162.908 92.7967 162.903 92.618C162.836 91.2124 162.846 89.9169 162.879 88.5113C162.909 87.228 163.082 86.8565 161.945 86.2284L161.943 86.2293ZM159.299 127.767C161.567 126.775 163.576 125.274 165.171 123.381C165.645 122.842 164.793 122.091 164.264 122.541C161.638 124.768 158.891 127.401 155.153 127.001C151.171 126.575 150.019 122.521 149.189 119.225C148.992 118.44 147.767 118.64 147.934 119.451C148.731 123.32 150.211 127.606 154.649 128.341C155.771 128.523 156.918 128.469 158.018 128.184C158.22 129.496 157.988 130.763 158.092 131.878C158.119 132.027 158.199 132.161 158.316 132.256C158.434 132.351 158.582 132.401 158.733 132.396C158.885 132.391 159.029 132.333 159.141 132.231C159.253 132.128 159.324 131.99 159.342 131.839C159.495 130.486 159.481 129.118 159.299 127.768V127.767ZM161.4 117.885C161.357 117.736 161.263 117.607 161.134 117.522C161.005 117.436 160.849 117.399 160.695 117.417C160.542 117.435 160.399 117.508 160.294 117.621C160.188 117.735 160.127 117.882 160.12 118.037C160.355 120.371 158.083 120.918 156.316 121.397C156.159 121.437 156.023 121.538 155.94 121.678C155.857 121.817 155.832 121.984 155.872 122.142C155.912 122.3 156.013 122.435 156.153 122.518C156.292 122.602 156.459 122.626 156.617 122.586C158.839 122.375 162.061 121.269 161.4 117.889V117.885ZM154.334 117.493C153.861 117.627 153.361 117.644 152.88 117.542C153.082 116.84 153.29 116.142 153.454 115.43C153.496 115.276 153.477 115.112 153.4 114.973C153.323 114.833 153.195 114.729 153.043 114.682C152.891 114.635 152.727 114.649 152.585 114.721C152.443 114.793 152.334 114.918 152.283 115.068C152.042 115.722 151.796 116.462 151.614 117.141C151.53 117.321 151.491 117.518 151.5 117.716C151.51 117.914 151.568 118.107 151.669 118.278C151.771 118.448 151.912 118.591 152.082 118.694C152.251 118.797 152.443 118.857 152.641 118.869C153.363 119.007 154.109 118.966 154.811 118.749C154.896 118.719 154.974 118.673 155.041 118.613C155.108 118.553 155.162 118.481 155.2 118.399C155.238 118.318 155.26 118.23 155.263 118.14C155.267 118.051 155.252 117.961 155.221 117.877C155.189 117.793 155.141 117.716 155.079 117.651C155.017 117.586 154.943 117.534 154.86 117.499C154.778 117.463 154.689 117.444 154.6 117.443C154.51 117.442 154.421 117.459 154.338 117.493H154.334ZM148.993 114.613C148.958 114.077 148.735 113.476 148.116 113.433C147.308 113.378 147.102 114.121 147.207 114.769C147.295 115.305 147.699 116.127 148.378 116.046C149.031 115.971 149.024 115.101 148.993 114.613ZM157.843 111.681C157.803 111.538 157.731 111.406 157.633 111.295C157.535 111.183 157.413 111.095 157.276 111.038C157.139 110.98 156.991 110.954 156.843 110.962C156.695 110.969 156.55 111.01 156.42 111.081C156.216 111.289 156.076 111.552 156.017 111.838C155.957 112.123 155.981 112.42 156.085 112.692C156.19 112.964 156.37 113.201 156.605 113.374C156.84 113.547 157.119 113.649 157.41 113.667C158.218 113.487 158.152 112.48 157.843 111.681ZM164.016 108.508C162.876 108.202 161.675 108.199 160.533 108.5C159.705 106.811 157.969 104.985 155.919 105.319C153.632 105.692 153.058 108.253 153.2 110.211C152.869 110.163 152.532 110.183 152.209 110.271C151.886 110.359 151.585 110.512 151.324 110.722C150.683 109.277 149.675 107.932 148.026 107.664C144.504 107.091 143.854 111.771 144.479 114.315C144.968 116.29 146.485 118.379 148.772 118.095C152.21 117.67 151.542 112.439 151.642 112.309C151.811 112.025 152.07 111.807 152.377 111.689C152.685 111.57 153.023 111.559 153.338 111.655C153.774 114.086 155.704 116.95 158.536 116.279C161.258 115.633 161.635 111.972 160.998 109.738C161.964 109.634 162.937 109.628 163.905 109.719C164.039 109.693 164.161 109.625 164.253 109.524C164.345 109.423 164.401 109.295 164.414 109.159C164.426 109.023 164.394 108.886 164.322 108.77C164.249 108.654 164.141 108.565 164.014 108.516L164.016 108.508ZM158.532 114.781C160.503 113.857 159.859 110.166 159.132 108.816C158.556 107.747 157.134 106.095 155.75 106.755C154.547 107.329 154.215 109.071 154.564 110.774C155.131 113.539 156.327 115.814 158.532 114.781ZM150.241 112.093C149.986 110.487 149.165 109.035 147.565 108.994C145.526 108.942 145.368 112.416 145.674 113.853C145.947 115.135 146.964 116.869 148.507 116.754C150.382 116.614 150.425 113.243 150.242 112.094L150.241 112.093Z" fill="black"/>
</svg>
