<svg width="30" height="30" viewBox="0 0 30 30" fill="none" xmlns="http://www.w3.org/2000/svg">
<g clip-path="url(#clip0)">
<path d="M28.3548 4.31412C27.2999 3.25844 25.8685 2.66553 24.3762 2.66603C22.8843 2.66251 21.453 3.25524 20.4004 4.3123L13.1375 11.5753C11.7005 13.0146 11.1511 15.1168 11.7003 17.0751C11.8611 17.6452 12.4537 17.977 13.0238 17.8162C13.5939 17.6554 13.9257 17.0628 13.7649 16.4927C13.4263 15.2817 13.766 13.9822 14.654 13.0919L21.9169 5.82993C23.2748 4.47173 25.4766 4.47148 26.8348 5.82943C28.193 7.18731 28.1933 9.38916 26.8354 10.7474L19.5725 18.0103C19.0965 18.4869 18.492 18.8145 17.8329 18.9531C17.253 19.0738 16.8808 19.6417 17.0015 20.2217C17.1053 20.7203 17.5455 21.0771 18.0548 21.0755C18.1298 21.0756 18.2046 21.0677 18.2779 21.052C19.3431 20.8273 20.3199 20.2974 21.089 19.5269L28.352 12.265C30.5483 10.0702 30.5495 6.51051 28.3548 4.31412Z" fill="white"/>
<path d="M18.2676 12.9536C18.1067 12.3835 17.5142 12.0517 16.9441 12.2125C16.374 12.3733 16.0422 12.9658 16.203 13.5359C16.5416 14.7469 16.2019 16.0464 15.3139 16.9368L8.05093 24.1998C6.69304 25.558 4.49119 25.5582 3.13299 24.2003C1.77479 22.8424 1.77453 20.6406 3.13242 19.2824L10.3954 12.0183C10.8706 11.5418 11.4744 11.2142 12.1329 11.0755C12.7137 10.9593 13.0904 10.3943 12.9742 9.81354C12.858 9.23276 12.293 8.85602 11.7122 8.97221C11.7051 8.97366 11.6981 8.9751 11.691 8.97668C10.6256 9.20159 9.64855 9.73147 8.87893 10.5018L1.61592 17.7648C-0.563182 19.9775 -0.535908 23.5378 1.67682 25.7169C3.86541 27.8721 7.37852 27.8724 9.56742 25.7174L16.8304 18.4533C18.2674 17.014 18.8168 14.9118 18.2676 12.9536Z" fill="white"/>
</g>
<defs>
<clipPath id="clip0">
<rect width="30" height="30" fill="white"/>
</clipPath>
</defs>
</svg>
