<svg width="20" height="21" viewBox="0 0 20 21" fill="none" xmlns="http://www.w3.org/2000/svg">
<path d="M0 1.62098C0 0.829727 0.6575 0.188477 1.46875 0.188477H18.5312C19.3425 0.188477 20 0.829727 20 1.62098V18.756C20 19.5472 19.3425 20.1885 18.5312 20.1885H1.46875C0.6575 20.1885 0 19.5472 0 18.756V1.62098ZM6.17875 16.931V7.89973H3.1775V16.931H6.17875ZM4.67875 6.66598C5.725 6.66598 6.37625 5.97348 6.37625 5.10598C6.3575 4.21973 5.72625 3.54598 4.69875 3.54598C3.67125 3.54598 3 4.22098 3 5.10598C3 5.97348 3.65125 6.66598 4.65875 6.66598H4.67875ZM10.8138 16.931V11.8872C10.8138 11.6172 10.8337 11.3472 10.9137 11.1547C11.13 10.616 11.6238 10.0572 12.4538 10.0572C13.54 10.0572 13.9738 10.8847 13.9738 12.0997V16.931H16.975V11.751C16.975 8.97598 15.495 7.68598 13.52 7.68598C11.9275 7.68598 11.2137 8.56098 10.8138 9.17723V9.20848H10.7938C10.8004 9.19804 10.8071 9.18762 10.8138 9.17723V7.89973H7.81375C7.85125 8.74723 7.81375 16.931 7.81375 16.931H10.8138Z" fill="white"/>
</svg>
