<svg width="19" height="21" viewBox="0 0 19 21" fill="none" xmlns="http://www.w3.org/2000/svg">
<path fill-rule="evenodd" clip-rule="evenodd" d="M10.4664 6.15275C10.1735 5.85986 9.6986 5.85986 9.4057 6.15275C9.11281 6.44565 9.11281 6.92052 9.4057 7.21341L11.7998 9.6075L0.75 9.6075C0.335786 9.6075 -4.5242e-07 9.94328 -4.34315e-07 10.3575C-4.16209e-07 10.7717 0.335786 11.1075 0.75 11.1075L11.7998 11.1075L9.4057 13.5016C9.11281 13.7945 9.11281 14.2693 9.4057 14.5622C9.6986 14.8551 10.1735 14.8551 10.4664 14.5622L14.1408 10.8878C14.4337 10.5949 14.4337 10.1201 14.1408 9.82717L10.4664 6.15275ZM12.4849 1.92139C13.3374 1.92139 13.9316 1.92198 14.3942 1.95977C14.8481 1.99686 15.1089 2.06599 15.3064 2.16663C15.7298 2.38234 16.074 2.72655 16.2897 3.14991C16.3903 3.34743 16.4594 3.6082 16.4965 4.06207C16.5343 4.5247 16.5349 5.11894 16.5349 5.97139L16.5349 14.7435C16.5349 15.5959 16.5343 16.1901 16.4965 16.6528C16.4594 17.1067 16.3903 17.3674 16.2897 17.5649C16.074 17.9883 15.7298 18.3325 15.3064 18.5482C15.1089 18.6489 14.8481 18.718 14.3942 18.7551C13.9316 18.7929 13.3374 18.7935 12.4849 18.7935L9.22447 18.7935C8.37201 18.7935 7.77778 18.7929 7.31515 18.7551C6.86127 18.718 6.60051 18.6489 6.40299 18.5482C5.97963 18.3325 5.63542 17.9883 5.4197 17.5649C5.31906 17.3674 5.24993 17.1067 5.21285 16.6528C5.17505 16.1901 5.17447 15.5959 5.17447 14.7435L5.17447 14.0318C5.17447 13.6176 4.83868 13.2818 4.42447 13.2818C4.01026 13.2818 3.67447 13.6176 3.67447 14.0318L3.67447 14.7435L3.67447 14.7756C3.67446 15.5884 3.67446 16.244 3.71783 16.7749C3.76249 17.3216 3.85685 17.8017 4.0832 18.2459C4.44272 18.9515 5.0164 19.5252 5.722 19.8847C6.16622 20.1111 6.64636 20.2054 7.193 20.2501C7.72391 20.2935 8.37951 20.2935 9.19235 20.2935L9.22447 20.2935L12.4849 20.2935L12.517 20.2935C13.3299 20.2935 13.9855 20.2935 14.5164 20.2501C15.063 20.2054 15.5432 20.1111 15.9874 19.8847C16.693 19.5252 17.2667 18.9515 17.6262 18.2459C17.8525 17.8017 17.9469 17.3216 17.9916 16.7749C18.0349 16.244 18.0349 15.5884 18.0349 14.7755L18.0349 14.7435L18.0349 5.97139L18.0349 5.93927C18.0349 5.12644 18.0349 4.47083 17.9916 3.93993C17.9469 3.39329 17.8525 2.91315 17.6262 2.46893C17.2667 1.76332 16.693 1.18964 15.9874 0.830117C15.5432 0.603778 15.063 0.509418 14.5164 0.464755C13.9855 0.421378 13.3299 0.421384 12.517 0.421392L12.4849 0.421392L9.22447 0.421392L9.19236 0.421392C8.37952 0.421384 7.72391 0.421379 7.193 0.464756C6.64636 0.509418 6.16622 0.603777 5.722 0.830118C5.0164 1.18964 4.44272 1.76332 4.08319 2.46893C3.85685 2.91315 3.76249 3.39329 3.71783 3.93992C3.67446 4.47083 3.67446 5.12645 3.67447 5.93929L3.67447 5.97139L3.67447 6.68301C3.67447 7.09723 4.01026 7.43301 4.42447 7.43301C4.83868 7.43301 5.17447 7.09723 5.17447 6.68301L5.17447 5.97139C5.17447 5.11894 5.17505 4.5247 5.21285 4.06207C5.24993 3.6082 5.31906 3.34743 5.4197 3.14991C5.63542 2.72655 5.97963 2.38234 6.40299 2.16663C6.60051 2.06599 6.86127 1.99686 7.31515 1.95977C7.77778 1.92198 8.37202 1.92139 9.22447 1.92139L12.4849 1.92139Z" fill="#174542" fill-opacity="0.65"/>
</svg>
