<svg width="70" height="70" viewBox="0 0 70 70" fill="none" xmlns="http://www.w3.org/2000/svg">
<path d="M50.3125 30.625V37.1875C50.3125 41.2486 48.6992 45.1434 45.8276 48.0151C42.9559 50.8867 39.0611 52.5 35 52.5C30.9389 52.5 27.0441 50.8867 24.1724 48.0151C21.3008 45.1434 19.6875 41.2486 19.6875 37.1875V30.625H15.3125V37.1875C15.3148 42.0286 17.1007 46.6991 20.3289 50.3066C23.5572 53.9142 28.0014 56.2059 32.8125 56.7438V61.25H24.0625V65.625H45.9375V61.25H37.1875V56.7438C41.9986 56.2059 46.4428 53.9142 49.6711 50.3066C52.8993 46.6991 54.6852 42.0286 54.6875 37.1875V30.625H50.3125Z" fill="#C4C4C4"/>
<path d="M35 48.125C37.9008 48.125 40.6828 46.9727 42.734 44.9215C44.7852 42.8703 45.9375 40.0883 45.9375 37.1875V15.3125C45.9375 12.4117 44.7852 9.6297 42.734 7.57852C40.6828 5.52734 37.9008 4.375 35 4.375C32.0992 4.375 29.3172 5.52734 27.266 7.57852C25.2148 9.6297 24.0625 12.4117 24.0625 15.3125V37.1875C24.0625 40.0883 25.2148 42.8703 27.266 44.9215C29.3172 46.9727 32.0992 48.125 35 48.125ZM28.4375 15.3125C28.4375 13.572 29.1289 11.9028 30.3596 10.6721C31.5903 9.4414 33.2595 8.75 35 8.75C36.7405 8.75 38.4097 9.4414 39.6404 10.6721C40.8711 11.9028 41.5625 13.572 41.5625 15.3125V37.1875C41.5625 38.928 40.8711 40.5972 39.6404 41.8279C38.4097 43.0586 36.7405 43.75 35 43.75C33.2595 43.75 31.5903 43.0586 30.3596 41.8279C29.1289 40.5972 28.4375 38.928 28.4375 37.1875V15.3125Z" fill="#C4C4C4"/>
</svg>
