<svg width="19" height="20" viewBox="0 0 19 20" fill="none" xmlns="http://www.w3.org/2000/svg">
<path fill-rule="evenodd" clip-rule="evenodd" d="M17.0097 2.32631C16.525 1.85672 15.755 1.85672 15.2702 2.32631C15.2642 2.33217 15.2561 2.34025 15.2275 2.36884L14.9404 2.65598C14.924 3.66593 15.7554 4.4973 16.7653 4.48094L17.0525 4.1938C17.0811 4.16521 17.0891 4.1571 17.095 4.15105C17.5646 3.6663 17.5646 2.89633 17.095 2.41158C17.0891 2.40553 17.0811 2.39742 17.0525 2.36884C17.0239 2.34025 17.0158 2.33217 17.0097 2.32631ZM15.504 5.74231C14.6773 5.4068 14.0145 4.74395 13.679 3.91735L11.1907 6.40566C10.7075 6.88888 10.5258 7.07376 10.3798 7.2768C10.243 7.46714 10.1272 7.67171 10.0343 7.88697C9.93533 8.11658 9.87028 8.36751 9.70453 9.03048L9.47577 9.94553L10.3908 9.71677C11.0538 9.55103 11.3047 9.48597 11.5343 9.38696C11.7496 9.29414 11.9542 9.17831 12.1445 9.04149C12.3475 8.89553 12.5324 8.71384 13.0156 8.23062L15.504 5.74231ZM14.2266 1.24894C15.293 0.215848 16.987 0.215848 18.0534 1.24894C18.0692 1.26425 18.0865 1.28154 18.109 1.30401L18.1131 1.30817L18.1173 1.31235C18.1398 1.33481 18.1571 1.3521 18.1724 1.3679C19.2055 2.43434 19.2055 4.12829 18.1724 5.19473C18.1571 5.21044 18.14 5.22762 18.1177 5.2499L18.1176 5.24999L18.1174 5.25021L18.1131 5.25446L14.0763 9.29128L14.0322 9.33538C13.6077 9.75996 13.334 10.0338 13.02 10.2594C12.7419 10.4594 12.4429 10.6287 12.1283 10.7644C11.7732 10.9175 11.3976 11.0113 10.8151 11.1569L10.7546 11.172L8.62689 11.7039C8.37131 11.7678 8.10095 11.6929 7.91466 11.5066C7.72838 11.3204 7.65349 11.05 7.71739 10.7944L8.24932 8.66668L8.26444 8.60618C8.40998 8.02371 8.50384 7.64809 8.65693 7.29304C8.79259 6.97844 8.96188 6.67944 9.16185 6.40126C9.38754 6.08731 9.66134 5.81357 10.0859 5.38909L10.13 5.345L14.1668 1.30818L14.1711 1.30394L14.1712 1.3038C14.1936 1.28144 14.2108 1.2642 14.2266 1.24894ZM7.117 0.607568L7.15 0.607568L9.40687 0.607568C9.82108 0.607568 10.1569 0.943354 10.1569 1.35757C10.1569 1.77178 9.82108 2.10757 9.40687 2.10757H7.15C6.01752 2.10757 5.21327 2.10815 4.58388 2.15957C3.96325 2.21028 3.579 2.30666 3.27453 2.4618C2.663 2.77339 2.16582 3.27057 1.85423 3.8821C1.69909 4.18657 1.60271 4.57082 1.55201 5.19145C1.50058 5.82083 1.5 6.62509 1.5 7.75757L1.5 12.2713C1.5 13.4038 1.50058 14.208 1.55201 14.8374C1.60271 15.458 1.69909 15.8423 1.85423 16.1468C2.16582 16.7583 2.663 17.2555 3.27453 17.5671C3.579 17.7222 3.96325 17.8186 4.58388 17.8693C5.21327 17.9207 6.01752 17.9213 7.15 17.9213H11.6637C12.7962 17.9213 13.6005 17.9207 14.2298 17.8693C14.8505 17.8186 15.2347 17.7222 15.5392 17.5671C16.1507 17.2555 16.6479 16.7583 16.9595 16.1468C17.1146 15.8423 17.211 15.458 17.2617 14.8374C17.3131 14.208 17.3137 13.4038 17.3137 12.2713V10.0144C17.3137 9.60022 17.6495 9.26443 18.0637 9.26443C18.4779 9.26443 18.8137 9.60022 18.8137 10.0144V12.2713V12.3043C18.8137 13.3965 18.8137 14.2619 18.7567 14.9596C18.6985 15.673 18.5768 16.2766 18.296 16.8278C17.8406 17.7215 17.114 18.4482 16.2202 18.9036C15.669 19.1844 15.0654 19.306 14.352 19.3643C13.6544 19.4213 12.7889 19.4213 11.6968 19.4213H11.6968H11.6967H11.6637H7.15H7.11698H7.11694H7.11689C6.0248 19.4213 5.15933 19.4213 4.46173 19.3643C3.74835 19.306 3.14472 19.1844 2.59355 18.9036C1.69978 18.4482 0.973118 17.7215 0.517719 16.8278C0.236882 16.2766 0.115274 15.673 0.0569879 14.9596C-1.0022e-05 14.2619 -5.49206e-06 13.3964 1.1078e-07 12.3043L1.1078e-07 12.2713L1.1078e-07 7.75757L1.1078e-07 7.72457L1.1078e-07 7.72456C-5.49207e-06 6.63242 -9.93218e-06 5.76692 0.0569879 5.0693C0.115274 4.35591 0.236882 3.75229 0.517719 3.20111C0.973118 2.30734 1.69978 1.58069 2.59355 1.12529C3.14472 0.844449 3.74835 0.722842 4.46173 0.664555C5.15936 0.607557 6.02486 0.607562 7.117 0.607568Z" fill="#174542" fill-opacity="0.65"/>
</svg>
