<svg width="26" height="19" viewBox="0 0 26 19" fill="none" xmlns="http://www.w3.org/2000/svg">
<path d="M24.1536 11.1295H20.7751V8.24123H24.1536C24.6613 8.24123 25.0728 7.87554 25.0728 7.42388C25.0728 6.97218 24.6613 6.60627 24.1536 6.60627H20.7751V2.5986C20.7751 2.01358 20.6452 1.58419 20.389 1.32263C20.1455 1.0738 19.8254 0.958008 19.3821 0.958008C18.9591 0.958008 18.651 1.073 18.4122 1.32028C18.159 1.58211 18.0305 2.0123 18.0305 2.59887V6.60676H11.6754L8.97332 2.96952C8.74206 2.64491 8.52462 2.34085 8.31346 2.04899C8.12335 1.78613 7.93793 1.57213 7.76278 1.41233C7.60773 1.27086 7.43103 1.16137 7.22436 1.07721C7.02936 0.998023 6.78145 0.958274 6.48815 0.958274C6.11406 0.958274 5.77449 1.04944 5.44932 1.23674C5.12755 1.422 4.90512 1.65105 4.76927 1.93701C4.65003 2.20878 4.58694 2.62522 4.58694 3.16276V6.60649H1.24203C0.734486 6.60654 0.323242 6.97245 0.323242 7.42411C0.323242 7.87577 0.734486 8.24145 1.24208 8.24145H4.58699V11.1301H1.24208C0.734486 11.1301 0.323242 11.4959 0.323242 11.9477C0.323242 12.3992 0.734486 12.7648 1.24208 12.7648H4.58699V17.3405C4.58699 17.9082 4.72109 18.3333 4.98671 18.6033C5.23931 18.8609 5.55959 18.9804 5.99452 18.9804C6.41414 18.9804 6.73193 18.8603 6.99545 18.6023C7.26531 18.338 7.40181 17.9132 7.40181 17.3405V12.7648H13.1524L16.2644 17.0096C16.4808 17.2901 16.7042 17.5734 16.927 17.8511C17.1281 18.1004 17.3474 18.3202 17.5788 18.5037C17.7872 18.6697 18.0106 18.7913 18.2429 18.8656C18.482 18.9421 18.7614 18.981 19.0715 18.981C19.9131 18.981 20.775 18.7518 20.775 17.0521V12.7648H24.1535C24.6612 12.7648 25.0727 12.3987 25.0727 11.9471C25.0728 11.4956 24.6613 11.1295 24.1536 11.1295ZM18.0304 8.24119V11.1295H15.0361L12.8906 8.24119H18.0304ZM7.40186 4.92243L8.63668 6.60627H7.40186V4.92243ZM7.40186 11.1295V8.24123H9.8357L11.9536 11.1295H7.40186ZM18.0304 15.1609L16.2509 12.7648H18.0304V15.1609Z" fill="#3050B9"/>
</svg>
