<svg width="20" height="20" viewBox="0 0 20 20" fill="none" xmlns="http://www.w3.org/2000/svg">
<path d="M19.2572 11.2873H16.5271V8.08216H19.2572C19.6675 8.08216 20 7.67636 20 7.17516C20 6.6739 19.6675 6.26786 19.2572 6.26786H16.5271V1.82056C16.5271 1.17137 16.4221 0.694875 16.2151 0.404618C16.0183 0.128489 15.7596 0 15.4014 0C15.0595 0 14.8106 0.127603 14.6176 0.402009C14.413 0.692561 14.3092 1.16994 14.3092 1.82085V6.2684H9.17366L6.9901 2.23217C6.80322 1.87195 6.62751 1.53453 6.45687 1.21065C6.30324 0.918968 6.1534 0.681485 6.01187 0.50416C5.88657 0.347167 5.74378 0.225668 5.57677 0.13228C5.41919 0.0444051 5.21886 0.000295403 4.98184 0.000295403C4.67954 0.000295403 4.40513 0.101462 4.14237 0.309309C3.88234 0.514892 3.7026 0.769064 3.59282 1.0864C3.49646 1.38798 3.44548 1.8501 3.44548 2.44661V6.2681H0.742471C0.332324 6.26815 0 6.6742 0 7.17541C0 7.67661 0.332324 8.08241 0.742511 8.08241H3.44552V11.2879H0.742511C0.332324 11.2879 0 11.6938 0 12.1952C0 12.6963 0.332324 13.1019 0.742511 13.1019H3.44552V18.1796C3.44552 18.8096 3.55389 19.2812 3.76853 19.581C3.97266 19.8667 4.23147 19.9994 4.58294 19.9994C4.92204 19.9994 5.17884 19.8661 5.39179 19.5798C5.60986 19.2865 5.72016 18.8151 5.72016 18.1796V13.1019H10.3672L12.882 17.8123C13.0569 18.1237 13.2374 18.438 13.4175 18.7462C13.5799 19.0229 13.7572 19.2667 13.9442 19.4704C14.1126 19.6546 14.2931 19.7896 14.4808 19.872C14.674 19.9569 14.8998 20 15.1504 20C15.8305 20 16.527 19.7457 16.527 17.8596V13.1019H19.2572C19.6674 13.1019 19.9999 12.6957 19.9999 12.1946C20 11.6935 19.6675 11.2873 19.2572 11.2873ZM14.3091 8.08212V11.2873H11.8894L10.1556 8.08212H14.3091ZM5.7202 4.3993L6.71806 6.26786H5.7202V4.3993ZM5.7202 11.2873V8.08216H7.68699L9.39842 11.2873H5.7202ZM14.3091 15.7609L12.8711 13.1019H14.3091V15.7609Z" fill="#121212"/>
</svg>
