<svg width="57" height="56" viewBox="0 0 57 56" fill="none" xmlns="http://www.w3.org/2000/svg">
<g clip-path="url(#clip0)">
<path d="M28.1149 0C20.6583 0 13.5072 2.94999 8.23465 8.20101C2.96209 13.452 0 20.5739 0 28C0 35.4261 2.96209 42.548 8.23465 47.799C13.5072 53.05 20.6583 56 28.1149 56C35.5714 56 42.7225 53.05 47.9951 47.799C53.2676 42.548 56.2297 35.4261 56.2297 28C56.2297 20.5739 53.2676 13.452 47.9951 8.20101C42.7225 2.94999 35.5714 0 28.1149 0Z" fill="#F3F3F3"/>
<rect x="13.0947" y="12.2637" width="31.1959" height="31.0685" rx="2" fill="#FFE58A" stroke="#6D6D6D" stroke-width="1.2"/>
<path d="M30.0608 33.8668C30.0608 34.5117 30.7923 34.8701 32.2552 34.8701V36.16H24.5015V34.8701C25.9644 34.8701 26.6959 34.5117 26.6959 33.8668V26.9869C26.6959 26.2702 25.9644 25.9119 24.5015 25.9119V24.6219H30.1339V33.8668H30.0608ZM30.4265 20.8953C30.4265 21.397 30.2071 21.8986 29.8413 22.2569C29.4756 22.6153 28.8904 22.8303 28.3052 22.8303C28.0126 22.8303 27.72 22.7586 27.4274 22.6869C27.1348 22.6153 26.9154 22.4719 26.7691 22.2569C26.6228 22.042 26.4033 21.8986 26.3302 21.612C26.1839 21.397 26.1839 21.1103 26.1839 20.8236C26.1839 20.2503 26.4033 19.8203 26.8422 19.462C27.2811 19.1037 27.7932 18.8887 28.3784 18.8887C28.9635 18.8887 29.4756 19.1037 29.9145 19.462C30.2071 19.892 30.4265 20.322 30.4265 20.8953Z" fill="white"/>
<path d="M32.621 36.59H24.1357V34.5833H24.5015C25.3061 34.5833 26.3302 34.44 26.3302 33.9384V27.0585C26.3302 26.4851 25.3793 26.3418 24.5015 26.3418H24.1357V24.3352H30.4997V33.9384C30.4997 34.0817 30.4997 34.1533 30.5728 34.225C30.7191 34.3683 31.0849 34.5833 32.3284 34.5833H32.6942V36.59H32.621ZM24.8672 35.8733H31.9627V35.3C31.0117 35.2283 30.4265 35.085 30.0608 34.7267C29.8414 34.5117 29.7682 34.225 29.7682 33.9384V25.0518H24.8672V25.6252C26.3302 25.6968 27.0617 26.1268 27.0617 26.9868V33.8667C27.0617 34.7267 26.3302 35.1567 24.8672 35.2283V35.8733ZM28.2321 23.1885C27.8663 23.1885 27.5737 23.1169 27.2811 22.9735C26.9885 22.8302 26.696 22.6869 26.4765 22.4719C26.2571 22.2569 26.0376 22.0419 25.9645 21.7552C25.8182 21.4686 25.745 21.1819 25.745 20.8236C25.745 20.1786 26.0376 19.6053 26.4765 19.1753C26.9886 18.7453 27.5737 18.5303 28.2321 18.5303C28.8904 18.5303 29.4756 18.7453 29.9877 19.1753C30.4997 19.6053 30.7191 20.1786 30.7191 20.8236C30.7191 21.4686 30.4997 21.9702 29.9877 22.4719C29.5488 22.9735 28.9636 23.1885 28.2321 23.1885ZM28.2321 19.3186C27.72 19.3186 27.2811 19.4619 26.9154 19.7486C26.5497 20.0352 26.4034 20.3936 26.4034 20.8236C26.4034 21.0386 26.4765 21.2536 26.5497 21.3969C26.6228 21.6119 26.7691 21.7552 26.9154 21.8986C27.0617 22.0419 27.2811 22.1852 27.5006 22.2569C27.72 22.3285 27.9395 22.4002 28.2321 22.4002C28.7441 22.4002 29.183 22.2569 29.4756 21.8986C29.8414 21.6119 29.9877 21.2536 29.9877 20.8236C29.9877 20.3936 29.8414 20.0352 29.4756 19.7486C29.183 19.4619 28.7441 19.3186 28.2321 19.3186Z" fill="#6D6D6D"/>
</g>
<defs>
<clipPath id="clip0">
<rect width="57" height="56" fill="white"/>
</clipPath>
</defs>
</svg>
