<svg width="20" height="22" viewBox="0 0 20 22" fill="none" xmlns="http://www.w3.org/2000/svg">
<path d="M18.9536 7.825L16.8212 1.64384C16.4171 0.475349 15.2399 -0.106681 14.1918 0.343814C14.1766 0.350369 14.1614 0.357101 14.1463 0.364054L3.49003 5.28886C2.47535 5.75291 1.97665 7.0334 2.36535 8.17678L2.65836 9.04872H1.98622C0.889787 9.05009 0.00123146 10.0407 0 11.2631V19.2349C0.00123146 20.4573 0.889787 21.4479 1.98622 21.4493H15.4925C16.5889 21.4479 17.4775 20.4573 17.4787 19.2349V11.2631C17.4781 11.1429 17.4685 11.023 17.4501 10.9046L17.8191 10.738C18.8428 10.2702 19.346 8.97835 18.9536 7.825ZM1.98622 9.75737H15.4925C16.2058 9.75963 16.7942 10.3807 16.8352 11.1746H0.643535C0.684531 10.3806 1.27293 9.75958 1.98622 9.75737ZM5.18038 7.62305L7.30452 6.43862L7.74117 7.65635L5.61703 8.84043L5.18038 7.62305ZM16.8431 19.235C16.8423 20.0662 16.2381 20.7398 15.4925 20.7407H1.98622C1.24063 20.7398 0.636464 20.0662 0.63559 19.235V14.7176H16.8431V19.235ZM16.8431 14.009H0.63559V11.8832H16.8431V14.009ZM17.5807 10.0833L17.2486 10.2332C16.9056 9.50581 16.2296 9.04992 15.4925 9.04876H6.6648L8.28714 8.14423C8.43508 8.0619 8.5017 7.86685 8.44032 7.69568L7.76628 5.81788C7.70109 5.63621 7.51617 5.54781 7.35322 5.62044C7.345 5.62412 7.33694 5.62815 7.32903 5.63258L4.63445 7.13553C4.48663 7.21799 4.42017 7.41299 4.48159 7.58408L5.00722 9.04876H3.33685L2.96058 7.92988C2.69383 7.1443 3.03645 6.26474 3.73346 5.94578L14.3894 1.02098C15.1018 0.691651 15.9188 1.0685 16.2142 1.86271C16.2188 1.87507 16.2233 1.88751 16.2276 1.9L18.36 8.08116C18.6297 8.87369 18.2842 9.76158 17.5807 10.0833Z" fill="#3050B9"/>
<path d="M11.4317 19.7446C12.0239 20.1281 12.7551 20.1281 13.3474 19.7446C14.2579 20.3343 15.4249 19.9895 15.9539 18.9743C16.4829 17.9592 16.1736 16.6581 15.263 16.0683C14.9708 15.879 14.6387 15.7797 14.3007 15.7806C13.9657 15.7808 13.6367 15.8801 13.3474 16.0683C12.4368 15.4785 11.2698 15.8234 10.7408 16.8385C10.2118 17.8537 10.5211 19.1547 11.4317 19.7446ZM13.8787 16.5757C14.0139 16.5202 14.1566 16.491 14.3007 16.4893C15.0028 16.4893 15.5719 17.1238 15.5719 17.9065C15.5719 18.6892 15.0028 19.3237 14.3007 19.3237C14.1566 19.322 14.0139 19.2927 13.8787 19.2372C14.4414 18.4609 14.4414 17.352 13.8787 16.5757ZM13.3474 16.9789C13.7711 17.5071 13.7711 18.3058 13.3474 18.834C12.9236 18.3058 12.9236 17.507 13.3474 16.9789ZM12.394 16.4893C12.5381 16.4909 12.6808 16.5202 12.816 16.5757C12.2533 17.352 12.2533 18.4609 12.816 19.2372C12.6808 19.2927 12.5381 19.322 12.394 19.3237C11.6919 19.3237 11.1228 18.6892 11.1228 17.9065C11.1228 17.1237 11.6919 16.4893 12.394 16.4893Z" fill="#3050B9"/>
<path d="M13.4059 7.50384L13.6641 8.15137L16.6958 6.64887L16.4376 6.00134L13.4059 7.50384Z" fill="#3050B9"/>
<path d="M15.76 4.50145L11.3809 6.75488L11.6471 7.39797L16.0262 5.14454L15.76 4.50145Z" fill="#3050B9"/>
</svg>
