<svg width="20" height="17" viewBox="0 0 20 17" fill="none" xmlns="http://www.w3.org/2000/svg">
<path fill-rule="evenodd" clip-rule="evenodd" d="M9.26046 0.227134C9.43435 0.159966 9.62703 0.159966 9.80092 0.227134L18.5814 3.61866C18.8705 3.73033 19.0612 4.00835 19.0612 4.31828C19.0612 4.62822 18.8705 4.90623 18.5814 5.01791L9.80092 8.40943C9.62703 8.4766 9.43435 8.4766 9.26046 8.40943L0.479967 5.01791C0.190848 4.90623 0.000201883 4.62822 0.000201883 4.31828C0.000201883 4.00835 0.190848 3.73033 0.479967 3.61866L9.26046 0.227134ZM2.83173 4.31828L9.53069 6.9058L16.2297 4.31828L9.53069 1.73076L2.83173 4.31828ZM0.0505784 8.28746C0.199825 7.90107 0.634046 7.70882 1.02044 7.85807L9.53069 11.1452L18.0409 7.85807C18.4273 7.70882 18.8616 7.90107 19.0108 8.28746C19.16 8.67385 18.9678 9.10807 18.5814 9.25732L9.80093 12.6488C9.62703 12.716 9.43435 12.716 9.26046 12.6488L0.479967 9.25732C0.0935754 9.10807 -0.0986683 8.67385 0.0505784 8.28746ZM1.02044 12.0975C0.634045 11.9482 0.199825 12.1405 0.0505782 12.5269C-0.0986682 12.9133 0.0935758 13.3475 0.479967 13.4967L9.26046 16.8883C9.43435 16.9554 9.62703 16.9554 9.80092 16.8883L18.5814 13.4967C18.9678 13.3475 19.16 12.9133 19.0108 12.5269C18.8616 12.1405 18.4273 11.9482 18.0409 12.0975L9.53069 15.3846L1.02044 12.0975Z" fill="#636F7E"/>
</svg>
