<svg width="21" height="25" viewBox="0 0 21 25" fill="none" xmlns="http://www.w3.org/2000/svg">
<path d="M5.72915 0H19.2323C19.6961 0 20.1208 0.190391 20.4283 0.497947C20.7359 0.805502 20.9263 1.22534 20.9263 1.69399V19.6835C20.9263 20.1473 20.7359 20.572 20.4283 20.8796C20.1208 21.1871 19.7009 21.3775 19.2323 21.3775H16.8255C16.6107 21.3775 16.435 21.2018 16.435 20.987V5.32119C16.435 5.07222 16.3325 4.84277 16.1665 4.67679C16.0005 4.51081 15.776 4.40829 15.5221 4.40829H4.4257C4.2109 4.40829 4.03516 4.23255 4.03516 4.01775V1.69399C4.03516 1.23022 4.22555 0.805502 4.5331 0.497947C4.84066 0.190391 5.2605 0 5.72915 0ZM19.2323 0.781093H5.72915C5.48018 0.781093 5.25073 0.883611 5.08475 1.04959C4.91877 1.21558 4.81625 1.44014 4.81625 1.69399V3.6272H15.5221C15.9859 3.6272 16.4106 3.81759 16.7181 4.12515C17.0257 4.4327 17.2161 4.85254 17.2161 5.32119V20.5964H19.2323C19.4813 20.5964 19.7107 20.4939 19.8767 20.3279C20.0427 20.162 20.1452 19.9374 20.1452 19.6835V1.69399C20.1452 1.44502 20.0427 1.21558 19.8767 1.04959C19.7107 0.883611 19.4861 0.781093 19.2323 0.781093Z" fill="#CF2A2A"/>
<path d="M15.5272 4.40365H2.02407C1.7751 4.40365 1.54565 4.50617 1.37967 4.67215C1.21369 4.83813 1.11117 5.0627 1.11117 5.31655V23.3061C1.11117 23.5551 1.21369 23.7845 1.37967 23.9505C1.54565 24.1165 1.77022 24.219 2.02407 24.219H15.5272C15.7762 24.219 16.0056 24.1165 16.1716 23.9505C16.3376 23.7845 16.4401 23.5599 16.4401 23.3061V5.31655C16.4401 5.06758 16.3376 4.83813 16.1716 4.67215C16.0056 4.50617 15.7811 4.40365 15.5272 4.40365ZM2.02407 3.62256H15.5272C15.991 3.62256 16.4157 3.81295 16.7233 4.12051C17.0308 4.42806 17.2212 4.8479 17.2212 5.31655V23.3061C17.2212 23.7699 17.0308 24.1946 16.7233 24.5021C16.4157 24.8097 15.9959 25.0001 15.5272 25.0001H2.02407C1.5603 25.0001 1.13558 24.8097 0.828025 24.5021C0.520469 24.1946 0.330078 23.7747 0.330078 23.3061V5.31655C0.330078 4.85278 0.520469 4.42806 0.828025 4.12051C1.13558 3.81295 1.55542 3.62256 2.02407 3.62256Z" fill="#CF2A2A"/>
<path d="M12.9792 10.3396C13.7163 11.0768 14.0873 12.0434 14.0873 13.0149C14.0873 13.9815 13.7163 14.9481 12.9792 15.6901C12.242 16.4273 11.2754 16.7983 10.3039 16.7983C9.33732 16.7983 8.37072 16.4273 7.62868 15.6901C6.89153 14.9529 6.52051 13.9863 6.52051 13.0149C6.52051 12.0483 6.89153 11.0817 7.62868 10.3396C8.36584 9.60246 9.33244 9.23145 10.3039 9.23145C11.2705 9.23145 12.2371 9.60246 12.9792 10.3396ZM12.4275 10.8913C11.8417 10.3054 11.0753 10.0125 10.3039 10.0125C9.53748 10.0125 8.76615 10.3054 8.18033 10.8913C7.59451 11.4771 7.3016 12.2435 7.3016 13.0149C7.3016 13.7813 7.59451 14.5526 8.18033 15.1385C8.76615 15.7243 9.5326 16.0172 10.3039 16.0172C11.0704 16.0172 11.8417 15.7243 12.4275 15.1385C13.0133 14.5526 13.3062 13.7862 13.3062 13.0149C13.3062 12.2484 13.0133 11.4771 12.4275 10.8913Z" fill="#CF2A2A"/>
<path d="M9.00486 16.305L6.4419 18.868C6.16852 19.1413 5.80726 19.278 5.44601 19.278C5.08475 19.278 4.7235 19.1413 4.45011 18.868C4.17673 18.5946 4.04004 18.2333 4.04004 17.8721C4.04004 17.5108 4.17673 17.1496 4.45011 16.8762L7.01795 14.3083C7.16929 14.157 7.41826 14.157 7.5696 14.3083C7.60866 14.3474 7.63307 14.3864 7.65259 14.4353C7.71606 14.5573 7.79417 14.6745 7.87716 14.7916C7.96503 14.9088 8.06267 15.026 8.17495 15.1382C8.28723 15.2505 8.40439 15.3482 8.52156 15.436C8.64849 15.5288 8.77541 15.6118 8.90722 15.6801C9.09761 15.7778 9.17084 16.017 9.0732 16.2074C9.05368 16.2464 9.02439 16.2806 8.9951 16.3099L9.00486 16.305ZM5.89025 18.3163L8.11148 16.0951C8.09684 16.0853 8.08219 16.0755 8.06755 16.0658C7.91133 15.9535 7.76487 15.8266 7.62818 15.6899C7.49149 15.5532 7.36945 15.4067 7.25228 15.2505C7.24252 15.2359 7.23276 15.2212 7.22299 15.2066L5.00176 17.4278C4.87971 17.5499 4.82113 17.711 4.82113 17.8721C4.82113 18.0332 4.87971 18.1943 5.00176 18.3163C5.12381 18.4384 5.28491 18.4969 5.44601 18.4969C5.60711 18.4969 5.76821 18.4384 5.89025 18.3163Z" fill="#CF2A2A"/>
</svg>
