<svg width="17" height="16" viewBox="0 0 17 16" fill="none" xmlns="http://www.w3.org/2000/svg">
<g clip-path="url(#clip0)">
<path d="M15.8891 14.8619L11.9288 10.8825C13.008 9.55625 13.5386 7.86391 13.4109 6.15556C13.2832 4.44721 12.5068 2.85354 11.2425 1.7042C9.97811 0.554862 8.32248 -0.0622172 6.61802 -0.019396C4.91357 0.0234252 3.29069 0.72287 2.08508 1.93426C0.879473 3.14566 0.183367 4.77632 0.14075 6.48895C0.0981335 8.20158 0.712266 9.86516 1.85612 11.1356C2.99997 12.406 4.58603 13.1861 6.28623 13.3144C7.98643 13.4428 9.67068 12.9096 10.9906 11.8252L14.951 15.8045C15.0761 15.926 15.2437 15.9932 15.4177 15.9916C15.5916 15.9901 15.758 15.92 15.881 15.7964C16.0041 15.6728 16.0738 15.5056 16.0753 15.3308C16.0769 15.156 16.01 14.9876 15.8891 14.8619ZM6.79475 11.9999C5.74495 11.9999 4.71873 11.6871 3.84585 11.101C2.97298 10.515 2.29265 9.68204 1.89091 8.7075C1.48917 7.73296 1.38406 6.6606 1.58887 5.62604C1.79367 4.59147 2.2992 3.64116 3.04152 2.89528C3.78383 2.1494 4.72961 1.64145 5.75923 1.43567C6.78886 1.22988 7.85609 1.3355 8.82598 1.73916C9.79587 2.14283 10.6248 2.82642 11.2081 3.70348C11.7913 4.58054 12.1026 5.61169 12.1026 6.66652C12.101 8.08052 11.5413 9.43615 10.5462 10.436C9.55116 11.4359 8.202 11.9983 6.79475 11.9999Z" fill="#6D6D6D"/>
</g>
<defs>
<clipPath id="clip0">
<rect width="15.9236" height="16" fill="white" transform="translate(0.160156)"/>
</clipPath>
</defs>
</svg>
