<svg width="21" height="19" viewBox="0 0 21 19" fill="none" xmlns="http://www.w3.org/2000/svg">
<path fill-rule="evenodd" clip-rule="evenodd" d="M9 4.67139C9 2.60032 10.6789 0.921387 12.75 0.921387C14.5642 0.921387 16.0775 2.20971 16.425 3.92139H19.75C20.1642 3.92139 20.5 4.25717 20.5 4.67139C20.5 5.0856 20.1642 5.42139 19.75 5.42139H16.425C16.0775 7.13307 14.5642 8.42139 12.75 8.42139C10.6789 8.42139 9 6.74245 9 4.67139ZM12.75 2.42139C13.9926 2.42139 15 3.42875 15 4.67139C15 5.91403 13.9926 6.92139 12.75 6.92139C11.5074 6.92139 10.5 5.91403 10.5 4.67139C10.5 3.42875 11.5074 2.42139 12.75 2.42139ZM0.75 3.92139C0.335786 3.92139 0 4.25717 0 4.67139C0 5.0856 0.335786 5.42139 0.75 5.42139H6.75C7.16421 5.42139 7.5 5.0856 7.5 4.67139C7.5 4.25717 7.16421 3.92139 6.75 3.92139H0.75ZM0.75 13.9214C0.335786 13.9214 0 14.2572 0 14.6714C0 15.0856 0.335786 15.4214 0.75 15.4214H4.07501C4.42247 17.1331 5.93578 18.4214 7.75 18.4214C9.82107 18.4214 11.5 16.7425 11.5 14.6714C11.5 12.6003 9.82107 10.9214 7.75 10.9214C5.93578 10.9214 4.42247 12.2097 4.07501 13.9214H0.75ZM5.5 14.6714C5.5 15.914 6.50736 16.9214 7.75 16.9214C8.99264 16.9214 10 15.914 10 14.6714C10 13.4287 8.99264 12.4214 7.75 12.4214C6.50736 12.4214 5.5 13.4287 5.5 14.6714ZM13.75 13.9214C13.3358 13.9214 13 14.2572 13 14.6714C13 15.0856 13.3358 15.4214 13.75 15.4214H19.75C20.1642 15.4214 20.5 15.0856 20.5 14.6714C20.5 14.2572 20.1642 13.9214 19.75 13.9214H13.75Z" fill="#174542" fill-opacity="0.65"/>
</svg>
