<svg width="29" height="29" viewBox="0 0 29 29" fill="none" xmlns="http://www.w3.org/2000/svg">
<path d="M14.4 0C6.447 0 0 6.447 0 14.4C0 22.353 6.447 28.8 14.4 28.8C22.353 28.8 28.8 22.353 28.8 14.4C28.8 6.447 22.353 0 14.4 0ZM20.2575 11.796C20.2635 11.919 20.265 12.042 20.265 12.162C20.265 15.912 17.4135 20.2335 12.1965 20.2335C10.6549 20.2361 9.14545 19.7933 7.8495 18.9585C8.07 18.9855 8.2965 18.996 8.526 18.996C9.855 18.996 11.0775 18.5445 12.048 17.7825C11.4566 17.7709 10.8835 17.575 10.4087 17.2223C9.93383 16.8695 9.58087 16.3774 9.399 15.8145C9.82373 15.8953 10.2613 15.8783 10.6785 15.765C10.0366 15.6352 9.4593 15.2874 9.04456 14.7805C8.62983 14.2736 8.40316 13.6389 8.403 12.984V12.9495C8.7855 13.161 9.2235 13.29 9.6885 13.305C9.0867 12.9044 8.66068 12.289 8.49757 11.5847C8.33446 10.8804 8.44658 10.1404 8.811 9.516C9.52343 10.392 10.4119 11.1086 11.4189 11.6195C12.4258 12.1303 13.5288 12.424 14.6565 12.4815C14.5131 11.873 14.5748 11.2341 14.832 10.6643C15.0892 10.0944 15.5274 9.62548 16.0786 9.3304C16.6298 9.03531 17.263 8.93058 17.8798 9.03251C18.4967 9.13443 19.0625 9.43729 19.4895 9.894C20.1243 9.76841 20.733 9.53558 21.2895 9.2055C21.0779 9.8627 20.635 10.4208 20.043 10.776C20.6053 10.7083 21.1543 10.5571 21.672 10.3275C21.2917 10.8973 20.8127 11.3947 20.2575 11.796Z" fill="white"/>
</svg>
