<svg width="20" height="20" viewBox="0 0 20 20" fill="none" xmlns="http://www.w3.org/2000/svg">
<path d="M9.6 0.688477C4.298 0.688477 0 4.98648 0 10.2885C0 15.5905 4.298 19.8885 9.6 19.8885C14.902 19.8885 19.2 15.5905 19.2 10.2885C19.2 4.98648 14.902 0.688477 9.6 0.688477ZM13.505 8.55248C13.509 8.63448 13.51 8.71648 13.51 8.79648C13.51 11.2965 11.609 14.1775 8.131 14.1775C7.10329 14.1792 6.09697 13.884 5.233 13.3275C5.38 13.3455 5.531 13.3525 5.684 13.3525C6.57 13.3525 7.385 13.0515 8.032 12.5435C7.63772 12.5357 7.25567 12.4052 6.93911 12.17C6.62255 11.9348 6.38725 11.6067 6.266 11.2315C6.54916 11.2853 6.84085 11.274 7.119 11.1985C6.69105 11.1119 6.3062 10.8801 6.02971 10.5421C5.75322 10.2042 5.60211 9.78109 5.602 9.34448V9.32148C5.857 9.46248 6.149 9.54848 6.459 9.55848C6.0578 9.2914 5.77379 8.88115 5.66504 8.41161C5.5563 7.94207 5.63105 7.44873 5.874 7.03248C6.34896 7.61648 6.94126 8.09422 7.61257 8.43479C8.28388 8.77535 9.01922 8.97114 9.771 9.00948C9.67542 8.60379 9.71656 8.17788 9.88801 7.79798C10.0595 7.41808 10.3516 7.10547 10.7191 6.90874C11.0865 6.71201 11.5087 6.6422 11.9199 6.71015C12.3311 6.7781 12.7084 6.98 12.993 7.28448C13.4162 7.20075 13.822 7.04553 14.193 6.82548C14.052 7.26361 13.7567 7.63565 13.362 7.87248C13.7368 7.82733 14.1029 7.72655 14.448 7.57348C14.1945 7.95337 13.8751 8.28491 13.505 8.55248Z" fill="white"/>
</svg>
