<svg width="32" height="32" viewBox="0 0 32 32" fill="none" xmlns="http://www.w3.org/2000/svg">
<g clip-path="url(#clip0)">
<path d="M16.0004 5.56543C13.3152 5.56543 11.1309 7.74975 11.1309 10.435C11.1309 13.1203 13.3152 15.3046 16.0004 15.3046C18.6857 15.3046 20.87 13.1202 20.87 10.435C20.87 7.74982 18.6857 5.56543 16.0004 5.56543ZM16.0004 13.9133C14.0832 13.9133 12.5222 12.3522 12.5222 10.435C12.5222 8.51782 14.0832 6.95678 16.0004 6.95678C17.9176 6.95678 19.4787 8.51782 19.4787 10.435C19.4787 12.3522 17.9177 13.9133 16.0004 13.9133Z" fill="#07BA18"/>
<path d="M25.739 11.1309C23.8218 11.1309 22.2607 12.6919 22.2607 14.6091C22.2607 16.5263 23.8218 18.0873 25.739 18.0873C27.6562 18.0873 29.2172 16.5263 29.2172 14.6091C29.2172 12.6919 27.6562 11.1309 25.739 11.1309ZM25.739 16.6961C24.5883 16.6961 23.652 15.7597 23.652 14.6091C23.652 13.4585 24.5883 12.5221 25.739 12.5221C26.8896 12.5221 27.8259 13.4585 27.8259 14.6091C27.8259 15.7597 26.8895 16.6961 25.739 16.6961Z" fill="#07BA18"/>
<path d="M6.36007 11.1309C4.44144 11.1309 2.88184 12.6919 2.88184 14.6091C2.88184 16.5263 4.44288 18.0873 6.36007 18.0873C8.27726 18.0873 9.83831 16.5263 9.83831 14.6091C9.83831 12.6919 8.27863 11.1309 6.36007 11.1309ZM6.36007 16.6961C5.20944 16.6961 4.27312 15.7597 4.27312 14.6091C4.27312 13.4585 5.20944 12.5221 6.36007 12.5221C7.5107 12.5221 8.44703 13.4585 8.44703 14.6091C8.44703 15.7597 7.51063 16.6961 6.36007 16.6961Z" fill="#07BA18"/>
<path d="M15.9995 16.6953C11.0131 16.6953 6.95605 20.7524 6.95605 25.7388C6.95605 26.1228 7.26773 26.4345 7.65173 26.4345C8.03573 26.4345 8.3474 26.1228 8.3474 25.7388C8.3474 21.519 11.7797 18.0867 15.9995 18.0867C20.2194 18.0867 23.6517 21.519 23.6517 25.7388C23.6517 26.1228 23.9634 26.4345 24.3474 26.4345C24.7314 26.4345 25.043 26.1228 25.043 25.7388C25.043 20.7524 20.986 16.6953 15.9995 16.6953Z" fill="#07BA18"/>
<path d="M25.7395 19.4785C24.5945 19.4785 23.4731 19.7916 22.4964 20.3829C22.1695 20.5832 22.0637 21.0103 22.2627 21.3387C22.4644 21.6671 22.8901 21.7714 23.2185 21.5724C23.9767 21.1119 24.8477 20.8698 25.7395 20.8698C28.4247 20.8698 30.6091 23.0541 30.6091 25.7394C30.6091 26.1234 30.9208 26.4351 31.3048 26.4351C31.6888 26.4351 32.0005 26.1234 32.0005 25.7394C32.0004 22.2876 29.1914 19.4785 25.7395 19.4785Z" fill="#07BA18"/>
<path d="M9.50262 20.3814C8.5273 19.7916 7.40595 19.4785 6.26087 19.4785C2.80904 19.4785 0 22.2876 0 25.7394C0 26.1234 0.311674 26.4351 0.695674 26.4351C1.07967 26.4351 1.39135 26.1234 1.39135 25.7394C1.39128 23.0541 3.57567 20.8698 6.26087 20.8698C7.15271 20.8698 8.02363 21.1119 8.78054 21.571C9.10747 21.77 9.53602 21.6656 9.73636 21.3373C9.93671 21.0089 9.83093 20.5818 9.50262 20.3814Z" fill="#07BA18"/>
</g>
<defs>
<clipPath id="clip0">
<rect width="32" height="32" fill="white"/>
</clipPath>
</defs>
</svg>
