<svg id="user_2_" data-name="user (2)" xmlns="http://www.w3.org/2000/svg" width="37" height="37" viewBox="0 0 37 37">
  <g id="Group_2804" data-name="Group 2804">
    <path id="Path_15686" data-name="Path 15686" d="M18.5,0A18.49,18.49,0,0,0,4.239,30.271c.007.009.007.021.015.03a18.5,18.5,0,0,0,6.986,5.213l.092.04c.216.091.435.176.655.258.086.033.173.066.26.1q.284.1.572.194c.123.039.245.078.369.115q.254.076.511.146c.15.041.3.078.454.115s.308.074.463.107c.173.037.347.07.522.1.141.026.281.053.422.076.194.031.39.056.586.081.126.016.252.035.379.048.222.023.446.04.67.055.1.007.208.019.313.024Q18,37,18.5,37c.334,0,.665-.01.993-.027.1-.006.208-.017.313-.024.224-.016.448-.032.67-.055.127-.014.253-.032.379-.048.2-.025.392-.05.586-.081.141-.023.282-.05.422-.076.175-.032.349-.065.522-.1.155-.033.308-.07.462-.107s.3-.075.454-.115c.171-.046.342-.095.511-.146.124-.037.247-.076.369-.115q.288-.092.572-.194c.087-.031.173-.065.26-.1.22-.083.438-.168.655-.258l.092-.04A18.5,18.5,0,0,0,32.747,30.3c.007-.009.008-.021.015-.03A18.492,18.492,0,0,0,18.5,0ZM26,34.052l-.027.014c-.22.106-.444.206-.67.3l-.153.065q-.3.124-.6.236c-.084.031-.168.062-.252.092-.178.064-.357.125-.538.183-.112.036-.225.07-.338.1-.16.048-.321.094-.484.138-.137.036-.275.07-.413.1s-.289.07-.435.1-.321.063-.481.092c-.13.024-.26.049-.391.07-.181.028-.363.051-.545.074-.115.015-.23.032-.347.044-.208.022-.417.036-.627.051-.093.006-.186.017-.28.022q-.458.024-.918.025t-.918-.025c-.094,0-.186-.015-.28-.022-.21-.014-.419-.029-.627-.051-.117-.012-.231-.03-.347-.044-.182-.023-.364-.046-.545-.074-.131-.021-.261-.046-.391-.07-.161-.029-.322-.059-.481-.092s-.291-.066-.435-.1-.276-.066-.413-.1c-.162-.043-.324-.09-.484-.138-.113-.033-.226-.067-.338-.1q-.271-.087-.538-.183l-.252-.092q-.3-.113-.6-.236L11.7,34.37c-.226-.1-.45-.2-.67-.3L11,34.053A17.35,17.35,0,0,1,5.409,29.74,13.611,13.611,0,0,1,14.317,20.4c.086.052.175.1.263.149.052.029.1.06.155.088.184.1.37.189.561.271.146.064.3.118.448.174l.089.033a7.87,7.87,0,0,0,5.334,0l.089-.033c.15-.056.3-.11.448-.174.191-.082.377-.173.561-.271.052-.028.1-.059.155-.088.088-.049.178-.1.265-.149a13.614,13.614,0,0,1,8.908,9.336A17.368,17.368,0,0,1,26,34.052ZM11.717,13.567A6.783,6.783,0,1,1,22.19,19.25a6.532,6.532,0,0,1-.755.422l-.092.044a6.939,6.939,0,0,1-5.686,0l-.092-.044a6.482,6.482,0,0,1-.755-.422A6.779,6.779,0,0,1,11.717,13.567Zm20.8,15a14.859,14.859,0,0,0-8.662-9.049,8.017,8.017,0,1,0-10.707,0,14.86,14.86,0,0,0-8.662,9.049A17.262,17.262,0,1,1,35.767,18.5,17.169,17.169,0,0,1,32.516,28.566Z" fill="#fff"/>
  </g>
</svg>
