<svg width="21" height="21" viewBox="0 0 21 21" fill="none" xmlns="http://www.w3.org/2000/svg">
<path d="M18.8127 20.9983H2.18839C0.981811 20.9983 0.000976562 20.0166 0.000976562 18.8109V5.68643C0.000976562 4.48073 0.981811 3.49902 2.18839 3.49902H7.00069C7.24218 3.49902 7.43817 3.69502 7.43817 3.93651C7.43817 4.178 7.24218 4.37399 7.00069 4.37399H2.18839C1.46479 4.37399 0.875941 4.96284 0.875941 5.68643V18.8109C0.875941 19.5345 1.46479 20.1233 2.18839 20.1233H18.8127C19.5363 20.1233 20.1252 19.5345 20.1252 18.8109V5.68643C20.1252 4.96284 19.5363 4.37399 18.8127 4.37399H14.0004C13.7589 4.37399 13.5629 4.178 13.5629 3.93651C13.5629 3.69502 13.7589 3.49902 14.0004 3.49902H18.8127C20.0193 3.49902 21.0001 4.48073 21.0001 5.68643V18.8109C21.0001 20.0166 20.0193 20.9983 18.8127 20.9983Z" fill="#FFAC30"/>
<path d="M15.7511 8.74952H5.25098C5.00948 8.74952 4.81348 8.55352 4.81348 8.31202C4.81348 8.07051 5.00948 7.87451 5.25098 7.87451H15.7511C15.9926 7.87451 16.1886 8.07051 16.1886 8.31202C16.1886 8.55352 15.9926 8.74952 15.7511 8.74952Z" fill="#FFAC30"/>
<path d="M12.5226 8.74943C12.4106 8.74943 12.2978 8.70655 12.2129 8.6208C12.0431 8.4493 12.0431 8.1728 12.2146 8.00217L14.8353 5.38939L10.5014 1.05548L6.16834 5.38939L8.78899 8.00217C8.96049 8.1728 8.96049 8.4493 8.79074 8.6208C8.62011 8.7923 8.34098 8.79143 8.17211 8.62168L5.23995 5.69915C5.1577 5.6169 5.11133 5.50577 5.11133 5.39027C5.11133 5.27477 5.1577 5.16189 5.23908 5.08052L10.1916 0.12797C10.3623 -0.0426567 10.6396 -0.0426567 10.8103 0.12797L15.7628 5.08052C15.8451 5.16189 15.8914 5.27389 15.8914 5.39027C15.8914 5.50665 15.8451 5.61777 15.7628 5.70002L12.8307 8.62255C12.7458 8.70655 12.6346 8.74943 12.5226 8.74943Z" fill="#FFAC30"/>
</svg>
