<svg width="21" height="24" viewBox="0 0 21 24" fill="none" xmlns="http://www.w3.org/2000/svg">
<path d="M20.5626 14.1523H0.438459C0.196969 14.1523 0.000976562 13.9337 0.000976562 13.6645C0.000976562 13.3953 0.196969 13.1768 0.438459 13.1768H20.5626C20.8041 13.1768 21.0001 13.3953 21.0001 13.6645C21.0001 13.9337 20.8041 14.1523 20.5626 14.1523Z" fill="#FFAC30"/>
<path d="M18.8127 23.906H2.18839C0.981812 23.906 0.000976562 22.8115 0.000976562 21.4673V6.83517C0.000976562 5.49097 0.981812 4.39648 2.18839 4.39648H7.00069C7.24218 4.39648 7.43817 4.61499 7.43817 4.88422C7.43817 5.15345 7.24218 5.37196 7.00069 5.37196H2.18839C1.46479 5.37196 0.875941 6.02846 0.875941 6.83517V21.4673C0.875941 22.274 1.46479 22.9305 2.18839 22.9305H18.8127C19.5363 22.9305 20.1252 22.274 20.1252 21.4673V6.83517C20.1252 6.02846 19.5363 5.37196 18.8127 5.37196H14.0004C13.7589 5.37196 13.5629 5.15345 13.5629 4.88422C13.5629 4.61499 13.7589 4.39648 14.0004 4.39648H18.8127C20.0193 4.39648 21.0001 5.49097 21.0001 6.83517V21.4673C21.0001 22.8115 20.0193 23.906 18.8127 23.906Z" fill="#FFAC30"/>
<path d="M15.751 10.2509H5.25098C5.00948 10.2509 4.81348 10.0324 4.81348 9.76317C4.81348 9.49392 5.00948 9.27539 5.25098 9.27539H15.751C15.9925 9.27539 16.1885 9.49392 16.1885 9.76317C16.1885 10.0324 15.9925 10.2509 15.751 10.2509Z" fill="#FFAC30"/>
<path d="M12.5226 10.2506C12.4106 10.2506 12.2978 10.2028 12.2129 10.1072C12.0431 9.91603 12.0431 9.60777 12.2146 9.41754L14.8353 6.50461L10.5014 1.67282L6.16834 6.50461L8.78898 9.41754C8.96049 9.60777 8.96049 9.91603 8.79073 10.1072C8.62011 10.2984 8.34098 10.2975 8.1721 10.1082L5.23995 6.84995C5.1577 6.75825 5.11133 6.63436 5.11133 6.50559C5.11133 6.37682 5.1577 6.25098 5.23908 6.16025L10.1916 0.638765C10.3622 0.448537 10.6396 0.448537 10.8103 0.638765L15.7628 6.16025C15.845 6.25098 15.8914 6.37584 15.8914 6.50559C15.8914 6.63533 15.845 6.75923 15.7628 6.85093L12.8306 10.1092C12.7458 10.2028 12.6346 10.2506 12.5226 10.2506Z" fill="#FFAC30"/>
</svg>
