<svg width="12" height="24" viewBox="0 0 12 24" fill="none" xmlns="http://www.w3.org/2000/svg">
<path d="M11.35 23.6974H0.333984V21.0816H0.808811C1.85343 21.0816 3.18294 20.8948 3.18294 20.2408V11.2724C3.18294 10.525 1.94839 10.3382 0.808811 10.3382H0.333984V7.72238H8.59596V20.2408C8.59596 20.4276 8.59596 20.5211 8.69093 20.6145C8.88086 20.8013 9.35568 21.0816 10.9701 21.0816H11.4449V23.6974H11.35ZM1.28364 22.7632H10.4953V22.0158C9.26072 21.9224 8.50099 21.7355 8.02617 21.2684C7.74127 20.9882 7.64631 20.6145 7.64631 20.2408V8.65659H1.28364V9.40396C3.18294 9.49738 4.13259 10.0579 4.13259 11.179V20.1474C4.13259 21.2684 3.18294 21.829 1.28364 21.9224V22.7632ZM5.65204 6.22764C5.17721 6.22764 4.79735 6.13422 4.41749 5.94738C4.03763 5.76054 3.65777 5.5737 3.37287 5.29343C3.08798 5.01317 2.80308 4.73291 2.70812 4.35922C2.51819 3.98554 2.42322 3.61185 2.42322 3.14475C2.42322 2.30396 2.80308 1.55659 3.37287 0.996065C4.03763 0.435538 4.79735 0.155273 5.65204 0.155273C6.50672 0.155273 7.26645 0.435538 7.9312 0.996065C8.59596 1.55659 8.88086 2.30396 8.88086 3.14475C8.88086 3.98554 8.59596 4.63949 7.9312 5.29343C7.36141 5.94738 6.60169 6.22764 5.65204 6.22764ZM5.65204 1.18291C4.98728 1.18291 4.41749 1.36975 3.94266 1.74343C3.46784 2.11712 3.27791 2.58422 3.27791 3.14475C3.27791 3.42501 3.37287 3.70527 3.46784 3.89212C3.5628 4.17238 3.75273 4.35922 3.94266 4.54606C4.13259 4.73291 4.41749 4.91975 4.70238 5.01317C4.98728 5.10659 5.27218 5.20001 5.65204 5.20001C6.31679 5.20001 6.88659 5.01317 7.26645 4.54606C7.74127 4.17238 7.9312 3.70528 7.9312 3.14475C7.9312 2.58422 7.74127 2.11712 7.26645 1.74343C6.88659 1.36975 6.31679 1.18291 5.65204 1.18291Z" fill="#6D6D6D"/>
</svg>
